<svg width="244" height="200" viewBox="0 0 244 200" fill="none" xmlns="http://www.w3.org/2000/svg">
<g opacity="0.6">
<rect width="1.57347" height="1.57347" transform="matrix(0.707096 0.707118 -0.707096 0.707118 81.8506 118.67)" fill="#2C2ABB"/>
<rect x="110.425" y="123.998" width="0.993553" height="0.993553" transform="rotate(45 110.425 123.998)" fill="#2C2ABB"/>
<rect x="63.8174" y="109.609" width="1.30425" height="1.30425" transform="rotate(45 63.8174 109.609)" fill="#2C2ABB"/>
<rect x="98.7705" y="111.453" width="1.77961" height="1.77961" transform="rotate(45 98.7705 111.453)" fill="#2C2ABB"/>
<rect width="2.31879" height="2.31879" transform="matrix(0.707114 0.707099 -0.707114 0.707099 69.3213 133.073)" fill="#2C2ABB"/>
<rect x="106.091" y="146.979" width="1.03534" height="1.03534" transform="rotate(45 106.091 146.979)" fill="#2C2ABB"/>
<rect x="98.4502" y="128.974" width="1.32574" height="1.32574" transform="rotate(45 98.4502 128.974)" fill="#2C2ABB"/>
<rect width="1.11828" height="1.11828" transform="matrix(0.707122 0.707091 -0.707122 0.707091 86.3008 129.824)" fill="#2C2ABB"/>
<rect x="91.8047" y="134.42" width="1.53286" height="1.53286" transform="rotate(45 91.8047 134.42)" fill="#2C2ABB"/>
<rect x="80.5332" y="139.046" width="1.61519" height="1.61519" transform="rotate(45 80.5332 139.046)" fill="#2C2ABB"/>
<rect x="77.0791" y="146.394" width="0.828552" height="0.828552" transform="rotate(45 77.0791 146.394)" fill="#2C2ABB"/>
</g>
<g opacity="0.6">
<rect width="1.57347" height="1.57347" transform="matrix(0.707118 0.707096 -0.707118 0.707096 139.706 128.688)" fill="#2C2ABB"/>
<rect x="168.28" y="134.017" width="0.993553" height="0.993553" transform="rotate(45 168.28 134.017)" fill="#2C2ABB"/>
<rect x="121.673" y="119.628" width="1.30425" height="1.30425" transform="rotate(45 121.673 119.628)" fill="#2C2ABB"/>
<rect width="1.77961" height="1.77961" transform="matrix(0.707116 0.707097 -0.707116 0.707097 156.626 121.472)" fill="#2C2ABB"/>
<rect width="2.31879" height="2.31879" transform="matrix(0.707114 0.707099 -0.707114 0.707099 127.177 143.092)" fill="#2C2ABB"/>
<rect x="163.947" y="156.998" width="1.03534" height="1.03534" transform="rotate(45 163.947 156.998)" fill="#2C2ABB"/>
<rect x="156.306" y="138.993" width="1.32574" height="1.32574" transform="rotate(45 156.306 138.993)" fill="#2C2ABB"/>
<rect x="144.156" y="139.842" width="1.11828" height="1.11828" transform="rotate(45 144.156 139.842)" fill="#2C2ABB"/>
<rect width="1.53286" height="1.53286" transform="matrix(0.707096 0.707118 -0.707096 0.707118 149.66 144.438)" fill="#2C2ABB"/>
<rect x="138.39" y="149.064" width="1.61519" height="1.61519" transform="rotate(45 138.39 149.064)" fill="#2C2ABB"/>
<rect x="134.935" y="156.412" width="0.828552" height="0.828552" transform="rotate(45 134.935 156.412)" fill="#2C2ABB"/>
</g>
<g opacity="0.6">
<rect x="119.238" y="47.8545" width="1.37805" height="1.37805" transform="rotate(45 119.238 47.8545)" fill="#2C2ABB"/>
<rect x="144.263" y="52.5215" width="0.870156" height="0.870156" transform="rotate(45 144.263 52.5215)" fill="#2C2ABB"/>
<rect x="103.444" y="39.9199" width="1.14226" height="1.14226" transform="rotate(45 103.444 39.9199)" fill="#2C2ABB"/>
<rect x="134.057" y="41.5352" width="1.55858" height="1.55858" transform="rotate(45 134.057 41.5352)" fill="#2C2ABB"/>
<rect x="108.264" y="60.4697" width="2.0308" height="2.0308" transform="rotate(45 108.264 60.4697)" fill="#2C2ABB"/>
<rect width="0.906753" height="0.906753" transform="matrix(0.707088 0.707126 -0.707088 0.707126 140.468 72.6484)" fill="#2C2ABB"/>
<rect x="133.775" y="56.8799" width="1.16109" height="1.16109" transform="rotate(45 133.775 56.8799)" fill="#2C2ABB"/>
<rect x="123.136" y="57.624" width="0.979395" height="0.979395" transform="rotate(45 123.136 57.624)" fill="#2C2ABB"/>
<rect x="127.955" y="61.6494" width="1.34248" height="1.34248" transform="rotate(45 127.955 61.6494)" fill="#2C2ABB"/>
<rect x="118.084" y="65.7002" width="1.41459" height="1.41459" transform="rotate(45 118.084 65.7002)" fill="#2C2ABB"/>
<rect width="0.724702" height="0.724702" transform="matrix(0.707083 0.70713 -0.707083 0.70713 115.059 72.1367)" fill="#2C2ABB"/>
</g>
<path fill-rule="evenodd" clip-rule="evenodd" d="M110.709 73.4893L66.6055 98.0927L121.358 133.275L176.461 98.0927L132.088 73.3391L121.319 79.1041L110.709 73.4893Z" fill="url(#paint0_linear_5_3146)" fill-opacity="0.8"/>
<path fill-rule="evenodd" clip-rule="evenodd" d="M180.311 129.853L121.786 96.9728L121.532 96.8303L121.279 96.9728L62.0908 130.225L63.0716 130.862L121.532 98.0177L179.334 130.491L180.311 129.853Z" fill="url(#paint1_linear_5_3146)"/>
<path fill-rule="evenodd" clip-rule="evenodd" d="M104.567 70.2384L0 128.695L120.735 200L243.066 127.099L139.1 69.5846L121.319 79.103L104.567 70.2384ZM121.942 89.587L183.93 127.487L121.123 168.524L59.1346 128.306L121.942 89.587Z" fill="url(#paint2_linear_5_3146)"/>
<path d="M67.6103 104.83L121.532 74.5363L175.454 104.83L121.532 139.303L67.6103 104.83Z" stroke="url(#paint3_linear_5_3146)" stroke-width="1.03515"/>
<path fill-rule="evenodd" clip-rule="evenodd" d="M154.203 61.5005L123.164 44.7863L88.8633 61.9294L122.533 79.7115L154.203 61.5005ZM145.074 61.5605L123.136 49.1612L97.9915 61.8696L122.608 74.2236L145.074 61.5605Z" fill="url(#paint4_linear_5_3146)"/>
<path d="M89.4772 62.1504L122.532 79.7111L121.356 133.274L67.2432 98.3244L89.4772 62.1504Z" fill="url(#paint5_linear_5_3146)" fill-opacity="0.6"/>
<path d="M89.4772 62.1504L122.532 79.7111L121.356 133.274L67.2432 98.3244L89.4772 62.1504Z" fill="url(#paint6_linear_5_3146)" fill-opacity="0.4"/>
<path d="M110.689 73.4818L88.862 61.9277L66.6279 98.1018L110.689 73.4818Z" fill="url(#paint7_linear_5_3146)" fill-opacity="0.8"/>
<path d="M110.689 73.4818L88.862 61.9277L66.6279 98.1018L110.689 73.4818Z" fill="url(#paint8_linear_5_3146)" fill-opacity="0.4"/>
<path fill-rule="evenodd" clip-rule="evenodd" d="M132.966 73.7248L154.198 61.499L176.459 98.0964L121.355 133.277L121.357 133.138L176.053 98.0293L132.966 73.7248Z" fill="url(#paint9_linear_5_3146)" fill-opacity="0.8"/>
<path fill-rule="evenodd" clip-rule="evenodd" d="M133.014 73.6815L122.533 79.7096L121.359 133.273L176.463 98.0925L176.462 98.0913L133.014 73.6815ZM154.203 61.4955L154.203 61.4951L154.191 61.5016L154.203 61.4955Z" fill="url(#paint10_linear_5_3146)" fill-opacity="0.8"/>
<path fill-rule="evenodd" clip-rule="evenodd" d="M133.014 73.6815L122.533 79.7096L121.359 133.273L176.463 98.0925L176.462 98.0913L133.014 73.6815ZM154.203 61.4955L154.203 61.4951L154.191 61.5016L154.203 61.4955Z" fill="url(#paint11_linear_5_3146)" fill-opacity="0.7"/>
<g filter="url(#filter0_f_5_3146)">
<ellipse cx="89.509" cy="92.7643" rx="5.85011" ry="5.85011" transform="rotate(-30 89.509 92.7643)" fill="url(#paint12_radial_5_3146)"/>
</g>
<rect width="37.2413" height="1.66269" rx="0.831345" transform="matrix(0.866025 -0.500001 0.499999 0.866026 88.2129 92.5527)" fill="url(#paint13_linear_5_3146)" fill-opacity="0.6"/>
<g filter="url(#filter1_f_5_3146)">
<ellipse cx="89.509" cy="92.7643" rx="5.85011" ry="5.85011" transform="rotate(-30 89.509 92.7643)" fill="url(#paint14_radial_5_3146)"/>
</g>
<g filter="url(#filter2_f_5_3146)">
<ellipse rx="5.85011" ry="5.85011" transform="matrix(-0.866024 -0.500002 -0.499998 0.866026 145.769 89.0915)" fill="url(#paint15_radial_5_3146)"/>
</g>
<rect width="37.2413" height="1.66269" rx="0.831345" transform="matrix(-0.866025 -0.500001 -0.499999 0.866026 147.065 88.8799)" fill="url(#paint16_linear_5_3146)" fill-opacity="0.9"/>
<g filter="url(#filter3_f_5_3146)">
<circle r="7.73959" transform="matrix(-0.866025 -0.5 -0.5 0.866025 145.769 89.0917)" fill="url(#paint17_radial_5_3146)"/>
</g>
<g filter="url(#filter4_f_5_3146)">
<circle r="5.85011" transform="matrix(-0.838934 -0.544234 -0.544234 0.838934 140.874 108.362)" fill="url(#paint18_radial_5_3146)"/>
</g>
<rect width="23.1328" height="2.27469" rx="1.13734" transform="matrix(-0.838933 -0.544235 -0.544233 0.838934 141.944 107.7)" fill="url(#paint19_linear_5_3146)" fill-opacity="0.9"/>
<g filter="url(#filter5_f_5_3146)">
<circle r="7.73959" transform="matrix(-0.838934 -0.544234 -0.544234 0.838934 140.875 108.362)" fill="url(#paint20_radial_5_3146)"/>
</g>
<g filter="url(#filter6_f_5_3146)">
<ellipse rx="4.41571" ry="4.41571" transform="matrix(-0.838932 -0.544236 -0.544232 0.838935 141.377 114.24)" fill="url(#paint21_radial_5_3146)"/>
</g>
<rect width="26.2456" height="1.71695" rx="0.858477" transform="matrix(-0.838934 -0.544233 -0.544235 0.838933 142.185 113.741)" fill="url(#paint22_linear_5_3146)" fill-opacity="0.6"/>
<g filter="url(#filter7_f_5_3146)">
<ellipse rx="5.84191" ry="5.84191" transform="matrix(-0.838935 -0.544232 -0.544235 0.838933 141.377 114.24)" fill="url(#paint23_radial_5_3146)"/>
</g>
<g opacity="0.6">
<g filter="url(#filter8_f_5_3146)">
<circle cx="93.42" cy="103.607" r="2.95032" transform="rotate(-32.8046 93.42 103.607)" fill="url(#paint24_radial_5_3146)"/>
</g>
<rect x="92.7627" y="103.532" width="18.7815" height="0.838527" rx="0.419264" transform="rotate(-32.8046 92.7627 103.532)" fill="url(#paint25_linear_5_3146)" fill-opacity="0.6"/>
</g>
<rect width="18.7815" height="0.838527" rx="0.419264" transform="matrix(-0.869976 -0.493093 -0.493093 0.869976 163.656 86.9375)" fill="url(#paint26_linear_5_3146)"/>
<g filter="url(#filter9_f_5_3146)">
<circle r="2.95032" transform="matrix(-0.869976 -0.493093 -0.493093 0.869976 163.003 87.0494)" fill="url(#paint27_radial_5_3146)"/>
</g>
<g filter="url(#filter10_f_5_3146)">
<circle r="4.07376" transform="matrix(-0.869976 -0.493093 -0.493093 0.869976 163.004 87.05)" fill="url(#paint28_radial_5_3146)"/>
</g>
<g opacity="0.3">
<rect width="18.7815" height="0.838527" rx="0.419264" transform="matrix(-0.869977 -0.493093 -0.493094 0.869976 165.62 97.2129)" fill="url(#paint29_linear_5_3146)"/>
<g filter="url(#filter11_f_5_3146)">
<circle r="2.95032" transform="matrix(-0.869976 -0.493093 -0.493093 0.869976 164.967 97.3248)" fill="url(#paint30_radial_5_3146)"/>
</g>
</g>
<rect x="108.797" y="98.1631" width="32.1063" height="3.3369" rx="1.66845" transform="rotate(-31.6208 108.797 98.1631)" fill="url(#paint31_linear_5_3146)" fill-opacity="0.6"/>
<g filter="url(#filter12_f_5_3146)">
<circle cx="111.133" cy="98.6843" r="9.86515" transform="rotate(-31.6208 111.133 98.6843)" fill="url(#paint32_radial_5_3146)"/>
</g>
<g opacity="0.5">
<rect width="19.0623" height="2.78082" rx="1.39041" transform="matrix(0.866026 -0.499999 0.500001 0.866025 108.439 116.104)" fill="url(#paint33_linear_5_3146)" fill-opacity="0.6"/>
<g filter="url(#filter13_f_5_3146)">
<circle cx="110.371" cy="116.594" r="8.22117" transform="rotate(-30 110.371 116.594)" fill="url(#paint34_radial_5_3146)"/>
</g>
</g>
<path d="M101.12 42.0972L123.016 30.9073L144.912 42.0972L123.016 54.8305L101.12 42.0972Z" stroke="url(#paint35_linear_5_3146)" stroke-width="1.03515"/>
<path d="M123.015 27.225L144.508 38.9668L123.015 52.3281L101.67 38.9668L123.015 27.225Z" fill="url(#paint36_linear_5_3146)" fill-opacity="0.6"/>
<path d="M101.671 38.9669L123.017 52.3295L124.128 0L101.671 38.9669Z" fill="url(#paint37_linear_5_3146)"/>
<path d="M101.671 38.9669L123.017 52.3295L124.128 0L101.671 38.9669Z" fill="url(#paint38_linear_5_3146)" fill-opacity="0.4"/>
<path d="M144.508 38.9682L123.017 52.3295L124.128 0L144.508 38.9682Z" fill="url(#paint39_linear_5_3146)" fill-opacity="0.8"/>
<g filter="url(#filter14_f_5_3146)">
<ellipse cx="114.994" cy="28.2232" rx="2.95032" ry="2.95032" transform="rotate(-32.8046 114.994 28.2232)" fill="url(#paint40_radial_5_3146)"/>
</g>
<g filter="url(#filter15_f_5_3146)">
<ellipse cx="114.994" cy="28.2232" rx="2.95032" ry="2.95032" transform="rotate(-32.8046 114.994 28.2232)" fill="url(#paint41_radial_5_3146)"/>
</g>
<rect width="10.1623" height="0.838527" rx="0.419264" transform="matrix(0.840522 -0.541777 0.541773 0.840525 114.337 28.1484)" fill="url(#paint42_linear_5_3146)" fill-opacity="0.6"/>
<g filter="url(#filter16_f_5_3146)">
<circle r="4.17165" transform="matrix(-0.866025 -0.5 -0.5 0.866025 137.34 37.2467)" fill="url(#paint43_radial_5_3146)"/>
</g>
<rect width="17.1325" height="1.18565" rx="0.592824" transform="matrix(-0.866024 -0.500002 -0.499998 0.866027 138.265 37.0957)" fill="url(#paint44_linear_5_3146)" fill-opacity="0.9"/>
<g filter="url(#filter17_f_5_3146)">
<circle r="5.51902" transform="matrix(-0.866025 -0.5 -0.5 0.866025 137.34 37.2467)" fill="url(#paint45_radial_5_3146)"/>
</g>
<g opacity="0.4">
<g filter="url(#filter18_f_5_3146)">
<circle r="2.92491" transform="matrix(-0.866025 -0.5 -0.5 0.866025 132.98 38.8108)" fill="url(#paint46_radial_5_3146)"/>
</g>
<rect width="12.0123" height="0.831303" rx="0.415652" transform="matrix(-0.866026 -0.5 -0.5 0.866025 133.628 38.7051)" fill="url(#paint47_linear_5_3146)" fill-opacity="0.9"/>
<g filter="url(#filter19_f_5_3146)">
<circle r="3.8696" transform="matrix(-0.866025 -0.5 -0.5 0.866025 132.98 38.8109)" fill="url(#paint48_radial_5_3146)"/>
</g>
</g>
<g opacity="0.4">
<g filter="url(#filter20_f_5_3146)">
<ellipse rx="1.8515" ry="1.8515" transform="matrix(0.866028 -0.499995 0.500005 0.866023 115.296 35.7734)" fill="url(#paint49_radial_5_3146)"/>
</g>
<rect width="7.60392" height="0.526225" rx="0.263112" transform="matrix(0.866024 -0.500002 0.499998 0.866027 114.885 35.7061)" fill="url(#paint50_linear_5_3146)" fill-opacity="0.9"/>
<g filter="url(#filter21_f_5_3146)">
<ellipse rx="2.4495" ry="2.4495" transform="matrix(0.866023 -0.500004 0.499996 0.866028 115.295 35.7726)" fill="url(#paint51_radial_5_3146)"/>
</g>
</g>
<path d="M144.508 38.9682L123.017 52.3295L124.128 0L144.508 38.9682Z" fill="url(#paint52_linear_5_3146)" fill-opacity="0.4"/>
<defs>
<filter id="filter0_f_5_3146" x="80.5527" y="83.8077" width="17.9131" height="17.9132" filterUnits="userSpaceOnUse" color-interpolation-filters="sRGB">
<feFlood flood-opacity="0" result="BackgroundImageFix"/>
<feBlend mode="normal" in="SourceGraphic" in2="BackgroundImageFix" result="shape"/>
<feGaussianBlur stdDeviation="1.55273" result="effect1_foregroundBlur_5_3146"/>
</filter>
<filter id="filter1_f_5_3146" x="80.5527" y="83.8077" width="17.9131" height="17.9132" filterUnits="userSpaceOnUse" color-interpolation-filters="sRGB">
<feFlood flood-opacity="0" result="BackgroundImageFix"/>
<feBlend mode="normal" in="SourceGraphic" in2="BackgroundImageFix" result="shape"/>
<feGaussianBlur stdDeviation="1.55273" result="effect1_foregroundBlur_5_3146"/>
</filter>
<filter id="filter2_f_5_3146" x="136.813" y="80.1349" width="17.9131" height="17.9132" filterUnits="userSpaceOnUse" color-interpolation-filters="sRGB">
<feFlood flood-opacity="0" result="BackgroundImageFix"/>
<feBlend mode="normal" in="SourceGraphic" in2="BackgroundImageFix" result="shape"/>
<feGaussianBlur stdDeviation="1.55273" result="effect1_foregroundBlur_5_3146"/>
</filter>
<filter id="filter3_f_5_3146" x="134.923" y="78.2454" width="21.6924" height="21.6926" filterUnits="userSpaceOnUse" color-interpolation-filters="sRGB">
<feFlood flood-opacity="0" result="BackgroundImageFix"/>
<feBlend mode="normal" in="SourceGraphic" in2="BackgroundImageFix" result="shape"/>
<feGaussianBlur stdDeviation="1.55273" result="effect1_foregroundBlur_5_3146"/>
</filter>
<filter id="filter4_f_5_3146" x="131.918" y="99.4054" width="17.9121" height="17.9126" filterUnits="userSpaceOnUse" color-interpolation-filters="sRGB">
<feFlood flood-opacity="0" result="BackgroundImageFix"/>
<feBlend mode="normal" in="SourceGraphic" in2="BackgroundImageFix" result="shape"/>
<feGaussianBlur stdDeviation="1.55273" result="effect1_foregroundBlur_5_3146"/>
</filter>
<filter id="filter5_f_5_3146" x="130.029" y="97.516" width="21.6914" height="21.6919" filterUnits="userSpaceOnUse" color-interpolation-filters="sRGB">
<feFlood flood-opacity="0" result="BackgroundImageFix"/>
<feBlend mode="normal" in="SourceGraphic" in2="BackgroundImageFix" result="shape"/>
<feGaussianBlur stdDeviation="1.55273" result="effect1_foregroundBlur_5_3146"/>
</filter>
<filter id="filter6_f_5_3146" x="133.855" y="106.718" width="15.043" height="15.0434" filterUnits="userSpaceOnUse" color-interpolation-filters="sRGB">
<feFlood flood-opacity="0" result="BackgroundImageFix"/>
<feBlend mode="normal" in="SourceGraphic" in2="BackgroundImageFix" result="shape"/>
<feGaussianBlur stdDeviation="1.55273" result="effect1_foregroundBlur_5_3146"/>
</filter>
<filter id="filter7_f_5_3146" x="132.429" y="105.292" width="17.8965" height="17.8961" filterUnits="userSpaceOnUse" color-interpolation-filters="sRGB">
<feFlood flood-opacity="0" result="BackgroundImageFix"/>
<feBlend mode="normal" in="SourceGraphic" in2="BackgroundImageFix" result="shape"/>
<feGaussianBlur stdDeviation="1.55273" result="effect1_foregroundBlur_5_3146"/>
</filter>
<filter id="filter8_f_5_3146" x="87.3643" y="97.5508" width="12.1123" height="12.1123" filterUnits="userSpaceOnUse" color-interpolation-filters="sRGB">
<feFlood flood-opacity="0" result="BackgroundImageFix"/>
<feBlend mode="normal" in="SourceGraphic" in2="BackgroundImageFix" result="shape"/>
<feGaussianBlur stdDeviation="1.55273" result="effect1_foregroundBlur_5_3146"/>
</filter>
<filter id="filter9_f_5_3146" x="156.946" y="80.9932" width="12.1133" height="12.1125" filterUnits="userSpaceOnUse" color-interpolation-filters="sRGB">
<feFlood flood-opacity="0" result="BackgroundImageFix"/>
<feBlend mode="normal" in="SourceGraphic" in2="BackgroundImageFix" result="shape"/>
<feGaussianBlur stdDeviation="1.55273" result="effect1_foregroundBlur_5_3146"/>
</filter>
<filter id="filter10_f_5_3146" x="155.824" y="79.87" width="14.3594" height="14.3599" filterUnits="userSpaceOnUse" color-interpolation-filters="sRGB">
<feFlood flood-opacity="0" result="BackgroundImageFix"/>
<feBlend mode="normal" in="SourceGraphic" in2="BackgroundImageFix" result="shape"/>
<feGaussianBlur stdDeviation="1.55273" result="effect1_foregroundBlur_5_3146"/>
</filter>
<filter id="filter11_f_5_3146" x="158.91" y="91.2686" width="12.1133" height="12.1125" filterUnits="userSpaceOnUse" color-interpolation-filters="sRGB">
<feFlood flood-opacity="0" result="BackgroundImageFix"/>
<feBlend mode="normal" in="SourceGraphic" in2="BackgroundImageFix" result="shape"/>
<feGaussianBlur stdDeviation="1.55273" result="effect1_foregroundBlur_5_3146"/>
</filter>
<filter id="filter12_f_5_3146" x="98.1611" y="85.7123" width="25.9443" height="25.9441" filterUnits="userSpaceOnUse" color-interpolation-filters="sRGB">
<feFlood flood-opacity="0" result="BackgroundImageFix"/>
<feBlend mode="normal" in="SourceGraphic" in2="BackgroundImageFix" result="shape"/>
<feGaussianBlur stdDeviation="1.55273" result="effect1_foregroundBlur_5_3146"/>
</filter>
<filter id="filter13_f_5_3146" x="99.043" y="105.266" width="22.6562" height="22.656" filterUnits="userSpaceOnUse" color-interpolation-filters="sRGB">
<feFlood flood-opacity="0" result="BackgroundImageFix"/>
<feBlend mode="normal" in="SourceGraphic" in2="BackgroundImageFix" result="shape"/>
<feGaussianBlur stdDeviation="1.55273" result="effect1_foregroundBlur_5_3146"/>
</filter>
<filter id="filter14_f_5_3146" x="108.938" y="22.1671" width="12.1123" height="12.1122" filterUnits="userSpaceOnUse" color-interpolation-filters="sRGB">
<feFlood flood-opacity="0" result="BackgroundImageFix"/>
<feBlend mode="normal" in="SourceGraphic" in2="BackgroundImageFix" result="shape"/>
<feGaussianBlur stdDeviation="1.55273" result="effect1_foregroundBlur_5_3146"/>
</filter>
<filter id="filter15_f_5_3146" x="108.938" y="22.1671" width="12.1123" height="12.1122" filterUnits="userSpaceOnUse" color-interpolation-filters="sRGB">
<feFlood flood-opacity="0" result="BackgroundImageFix"/>
<feBlend mode="normal" in="SourceGraphic" in2="BackgroundImageFix" result="shape"/>
<feGaussianBlur stdDeviation="1.55273" result="effect1_foregroundBlur_5_3146"/>
</filter>
<filter id="filter16_f_5_3146" x="130.062" y="29.9689" width="14.5557" height="14.5555" filterUnits="userSpaceOnUse" color-interpolation-filters="sRGB">
<feFlood flood-opacity="0" result="BackgroundImageFix"/>
<feBlend mode="normal" in="SourceGraphic" in2="BackgroundImageFix" result="shape"/>
<feGaussianBlur stdDeviation="1.55273" result="effect1_foregroundBlur_5_3146"/>
</filter>
<filter id="filter17_f_5_3146" x="128.715" y="28.6212" width="17.25" height="17.2508" filterUnits="userSpaceOnUse" color-interpolation-filters="sRGB">
<feFlood flood-opacity="0" result="BackgroundImageFix"/>
<feBlend mode="normal" in="SourceGraphic" in2="BackgroundImageFix" result="shape"/>
<feGaussianBlur stdDeviation="1.55273" result="effect1_foregroundBlur_5_3146"/>
</filter>
<filter id="filter18_f_5_3146" x="126.949" y="32.7799" width="12.0615" height="12.0618" filterUnits="userSpaceOnUse" color-interpolation-filters="sRGB">
<feFlood flood-opacity="0" result="BackgroundImageFix"/>
<feBlend mode="normal" in="SourceGraphic" in2="BackgroundImageFix" result="shape"/>
<feGaussianBlur stdDeviation="1.55273" result="effect1_foregroundBlur_5_3146"/>
</filter>
<filter id="filter19_f_5_3146" x="126.004" y="31.8352" width="13.9512" height="13.9514" filterUnits="userSpaceOnUse" color-interpolation-filters="sRGB">
<feFlood flood-opacity="0" result="BackgroundImageFix"/>
<feBlend mode="normal" in="SourceGraphic" in2="BackgroundImageFix" result="shape"/>
<feGaussianBlur stdDeviation="1.55273" result="effect1_foregroundBlur_5_3146"/>
</filter>
<filter id="filter20_f_5_3146" x="110.339" y="30.8162" width="9.91405" height="9.91454" filterUnits="userSpaceOnUse" color-interpolation-filters="sRGB">
<feFlood flood-opacity="0" result="BackgroundImageFix"/>
<feBlend mode="normal" in="SourceGraphic" in2="BackgroundImageFix" result="shape"/>
<feGaussianBlur stdDeviation="1.55273" result="effect1_foregroundBlur_5_3146"/>
</filter>
<filter id="filter21_f_5_3146" x="109.74" y="30.2172" width="11.1103" height="11.1108" filterUnits="userSpaceOnUse" color-interpolation-filters="sRGB">
<feFlood flood-opacity="0" result="BackgroundImageFix"/>
<feBlend mode="normal" in="SourceGraphic" in2="BackgroundImageFix" result="shape"/>
<feGaussianBlur stdDeviation="1.55273" result="effect1_foregroundBlur_5_3146"/>
</filter>
<linearGradient id="paint0_linear_5_3146" x1="164.258" y1="89.2286" x2="76.8206" y2="108.248" gradientUnits="userSpaceOnUse">
<stop stop-color="#E8F5FF"/>
<stop offset="1" stop-color="#1E126B"/>
</linearGradient>
<linearGradient id="paint1_linear_5_3146" x1="129.115" y1="116.726" x2="127.508" y2="145.445" gradientUnits="userSpaceOnUse">
<stop stop-color="#193DB9" stop-opacity="0"/>
<stop offset="1" stop-color="#57E1FF"/>
</linearGradient>
<linearGradient id="paint2_linear_5_3146" x1="121.533" y1="61.7908" x2="121.533" y2="198.516" gradientUnits="userSpaceOnUse">
<stop offset="0.5" stop-color="#0234E8" stop-opacity="0"/>
<stop offset="0.84375" stop-color="#FF6BA0"/>
<stop offset="1" stop-color="#FFA6C6"/>
</linearGradient>
<linearGradient id="paint3_linear_5_3146" x1="121.532" y1="139.67" x2="121.532" y2="76.0957" gradientUnits="userSpaceOnUse">
<stop stop-color="white"/>
<stop offset="0.666667" stop-color="#9A98FF" stop-opacity="0"/>
</linearGradient>
<linearGradient id="paint4_linear_5_3146" x1="154.203" y1="62.2489" x2="88.8633" y2="62.2489" gradientUnits="userSpaceOnUse">
<stop stop-color="white"/>
<stop offset="0.265625" stop-color="#52F5FF"/>
<stop offset="0.677083" stop-color="#5171E0"/>
<stop offset="1" stop-color="#FF86EC"/>
</linearGradient>
<linearGradient id="paint5_linear_5_3146" x1="107.249" y1="70.1951" x2="77.9348" y2="105.591" gradientUnits="userSpaceOnUse">
<stop offset="0.338542" stop-color="#FF7CCB"/>
<stop offset="0.354167" stop-color="#FF7CCB"/>
<stop offset="1" stop-color="#12406B"/>
</linearGradient>
<linearGradient id="paint6_linear_5_3146" x1="109.266" y1="73.8639" x2="86.1281" y2="110.861" gradientUnits="userSpaceOnUse">
<stop stop-color="white"/>
<stop offset="0.512495" stop-color="white" stop-opacity="0"/>
</linearGradient>
<linearGradient id="paint7_linear_5_3146" x1="88.6583" y1="64.2132" x2="85.4312" y2="94.9189" gradientUnits="userSpaceOnUse">
<stop stop-color="#EDFF7C"/>
<stop offset="0.572917" stop-color="#FF7CCB"/>
<stop offset="1" stop-color="#00F0FF"/>
</linearGradient>
<linearGradient id="paint8_linear_5_3146" x1="100.845" y1="67.966" x2="91.9604" y2="90.5003" gradientUnits="userSpaceOnUse">
<stop stop-color="white"/>
<stop offset="0.512495" stop-color="white" stop-opacity="0"/>
</linearGradient>
<linearGradient id="paint9_linear_5_3146" x1="136.584" y1="66.8711" x2="165.756" y2="105.475" gradientUnits="userSpaceOnUse">
<stop offset="0.255208" stop-color="#132C85"/>
<stop offset="0.65625" stop-color="#FF87F3"/>
<stop offset="0.975883" stop-color="white"/>
</linearGradient>
<linearGradient id="paint10_linear_5_3146" x1="124.188" y1="64.5755" x2="172.759" y2="98.1599" gradientUnits="userSpaceOnUse">
<stop offset="0.191757" stop-color="#0F246D" stop-opacity="0.6"/>
<stop offset="0.646372" stop-color="#88C6FF"/>
<stop offset="1" stop-color="white"/>
</linearGradient>
<linearGradient id="paint11_linear_5_3146" x1="124.464" y1="133.273" x2="140.158" y2="85.1371" gradientUnits="userSpaceOnUse">
<stop stop-color="#FF5EAB"/>
<stop offset="1" stop-color="#FF5EAB" stop-opacity="0"/>
</linearGradient>
<radialGradient id="paint12_radial_5_3146" cx="0" cy="0" r="1" gradientUnits="userSpaceOnUse" gradientTransform="translate(89.509 92.7643) rotate(90) scale(5.85011)">
<stop stop-color="white"/>
<stop offset="1" stop-color="#FF38B0" stop-opacity="0"/>
</radialGradient>
<linearGradient id="paint13_linear_5_3146" x1="0.460967" y1="1.66265" x2="39.5458" y2="1.66265" gradientUnits="userSpaceOnUse">
<stop stop-color="white"/>
<stop offset="0.828125" stop-color="#9CE7FF" stop-opacity="0"/>
</linearGradient>
<radialGradient id="paint14_radial_5_3146" cx="0" cy="0" r="1" gradientUnits="userSpaceOnUse" gradientTransform="translate(89.509 92.7643) rotate(90) scale(5.85011)">
<stop stop-color="white"/>
<stop offset="1" stop-color="#FF38B0" stop-opacity="0"/>
</radialGradient>
<radialGradient id="paint15_radial_5_3146" cx="0" cy="0" r="1" gradientUnits="userSpaceOnUse" gradientTransform="translate(5.85011 5.85011) rotate(90) scale(5.85011)">
<stop stop-color="white"/>
<stop offset="1" stop-color="#FF38B0" stop-opacity="0"/>
</radialGradient>
<linearGradient id="paint16_linear_5_3146" x1="0.460967" y1="1.66265" x2="39.5458" y2="1.66265" gradientUnits="userSpaceOnUse">
<stop stop-color="#9EF9FF"/>
<stop offset="0.828125" stop-color="#9CE7FF" stop-opacity="0"/>
</linearGradient>
<radialGradient id="paint17_radial_5_3146" cx="0" cy="0" r="1" gradientUnits="userSpaceOnUse" gradientTransform="translate(7.73959 7.73959) rotate(90) scale(7.73959)">
<stop stop-color="white"/>
<stop offset="1" stop-color="#FF38B0" stop-opacity="0"/>
</radialGradient>
<radialGradient id="paint18_radial_5_3146" cx="0" cy="0" r="1" gradientUnits="userSpaceOnUse" gradientTransform="translate(5.85011 5.85011) rotate(90) scale(5.85011)">
<stop stop-color="white"/>
<stop offset="1" stop-color="#FF38B0" stop-opacity="0"/>
</radialGradient>
<linearGradient id="paint19_linear_5_3146" x1="0.286334" y1="2.27463" x2="24.5643" y2="2.27463" gradientUnits="userSpaceOnUse">
<stop stop-color="#9EF9FF"/>
<stop offset="0.828125" stop-color="#9CE7FF" stop-opacity="0"/>
</linearGradient>
<radialGradient id="paint20_radial_5_3146" cx="0" cy="0" r="1" gradientUnits="userSpaceOnUse" gradientTransform="translate(7.73959 7.73959) rotate(90) scale(7.73959)">
<stop stop-color="white"/>
<stop offset="1" stop-color="#FF7BCA" stop-opacity="0"/>
</radialGradient>
<radialGradient id="paint21_radial_5_3146" cx="0" cy="0" r="1" gradientUnits="userSpaceOnUse" gradientTransform="translate(4.41571 4.41571) rotate(90) scale(4.41571)">
<stop stop-color="white"/>
<stop offset="1" stop-color="#FF38B0" stop-opacity="0"/>
</radialGradient>
<linearGradient id="paint22_linear_5_3146" x1="0.324864" y1="1.71691" x2="27.8697" y2="1.71691" gradientUnits="userSpaceOnUse">
<stop stop-color="#9EF9FF"/>
<stop offset="0.828125" stop-color="#9CE7FF" stop-opacity="0"/>
</linearGradient>
<radialGradient id="paint23_radial_5_3146" cx="0" cy="0" r="1" gradientUnits="userSpaceOnUse" gradientTransform="translate(5.84191 5.84191) rotate(90) scale(5.84191)">
<stop stop-color="white"/>
<stop offset="1" stop-color="#FFAFDF" stop-opacity="0"/>
</radialGradient>
<radialGradient id="paint24_radial_5_3146" cx="0" cy="0" r="1" gradientUnits="userSpaceOnUse" gradientTransform="translate(93.42 103.607) rotate(90) scale(2.95032)">
<stop stop-color="white"/>
<stop offset="1" stop-color="#FF38B0" stop-opacity="0"/>
</radialGradient>
<linearGradient id="paint25_linear_5_3146" x1="92.9952" y1="104.371" x2="112.706" y2="104.371" gradientUnits="userSpaceOnUse">
<stop stop-color="white"/>
<stop offset="0.828125" stop-color="#9CE7FF" stop-opacity="0"/>
</linearGradient>
<linearGradient id="paint26_linear_5_3146" x1="0.232475" y1="0.838506" x2="19.9437" y2="0.838506" gradientUnits="userSpaceOnUse">
<stop stop-color="white"/>
<stop offset="0.828125" stop-color="#9CE7FF" stop-opacity="0"/>
</linearGradient>
<radialGradient id="paint27_radial_5_3146" cx="0" cy="0" r="1" gradientUnits="userSpaceOnUse" gradientTransform="translate(2.95032 2.95032) rotate(90) scale(2.95032)">
<stop stop-color="white"/>
<stop offset="1" stop-color="#FF38B0" stop-opacity="0"/>
</radialGradient>
<radialGradient id="paint28_radial_5_3146" cx="0" cy="0" r="1" gradientUnits="userSpaceOnUse" gradientTransform="translate(4.07376 4.07376) rotate(90) scale(4.07376)">
<stop stop-color="white"/>
<stop offset="1" stop-color="#FF38B0" stop-opacity="0"/>
</radialGradient>
<linearGradient id="paint29_linear_5_3146" x1="0.232475" y1="0.838506" x2="19.9437" y2="0.838506" gradientUnits="userSpaceOnUse">
<stop stop-color="white"/>
<stop offset="0.828125" stop-color="#9CE7FF" stop-opacity="0"/>
</linearGradient>
<radialGradient id="paint30_radial_5_3146" cx="0" cy="0" r="1" gradientUnits="userSpaceOnUse" gradientTransform="translate(2.95032 2.95032) rotate(90) scale(2.95032)">
<stop stop-color="white"/>
<stop offset="1" stop-color="#FF38B0" stop-opacity="0"/>
</radialGradient>
<linearGradient id="paint31_linear_5_3146" x1="109.194" y1="101.5" x2="142.89" y2="101.5" gradientUnits="userSpaceOnUse">
<stop stop-color="#D8FFFD"/>
<stop offset="0.875" stop-color="#9CE7FF" stop-opacity="0"/>
</linearGradient>
<radialGradient id="paint32_radial_5_3146" cx="0" cy="0" r="1" gradientUnits="userSpaceOnUse" gradientTransform="translate(111.133 98.6843) rotate(90) scale(9.86515)">
<stop stop-color="white"/>
<stop offset="1" stop-color="#FF38B0" stop-opacity="0"/>
</radialGradient>
<linearGradient id="paint33_linear_5_3146" x1="0.23595" y1="2.78075" x2="20.2419" y2="2.78075" gradientUnits="userSpaceOnUse">
<stop stop-color="#D8FFFD"/>
<stop offset="1" stop-color="#9CE7FF" stop-opacity="0"/>
</linearGradient>
<radialGradient id="paint34_radial_5_3146" cx="0" cy="0" r="1" gradientUnits="userSpaceOnUse" gradientTransform="translate(110.371 116.594) rotate(90) scale(8.22117)">
<stop stop-color="white"/>
<stop offset="1" stop-color="#FF38B0" stop-opacity="0"/>
</radialGradient>
<linearGradient id="paint35_linear_5_3146" x1="123.016" y1="55.3351" x2="123.016" y2="31.1453" gradientUnits="userSpaceOnUse">
<stop stop-color="white"/>
<stop offset="0.666667" stop-color="#9A98FF" stop-opacity="0"/>
</linearGradient>
<linearGradient id="paint36_linear_5_3146" x1="127.237" y1="25.4179" x2="121.697" y2="46.2936" gradientUnits="userSpaceOnUse">
<stop stop-color="#132C85"/>
<stop offset="0.807292" stop-color="#FF87F3"/>
<stop offset="0.975883" stop-color="white"/>
</linearGradient>
<linearGradient id="paint37_linear_5_3146" x1="104.849" y1="-2.07617" x2="100.115" y2="45.9013" gradientUnits="userSpaceOnUse">
<stop offset="0.161458" stop-color="#EDFF7C"/>
<stop offset="0.637806" stop-color="#FF7CCB" stop-opacity="0.8"/>
<stop offset="1" stop-color="#00F0FF" stop-opacity="0.7"/>
</linearGradient>
<linearGradient id="paint38_linear_5_3146" x1="124.128" y1="0.937144" x2="113.454" y2="10.9716" gradientUnits="userSpaceOnUse">
<stop stop-color="white"/>
<stop offset="0.338173" stop-color="white" stop-opacity="0"/>
</linearGradient>
<linearGradient id="paint39_linear_5_3146" x1="124.128" y1="2.45003e-08" x2="121.833" y2="47.8799" gradientUnits="userSpaceOnUse">
<stop offset="0.00313583" stop-color="#00E0FF"/>
<stop offset="0.545394" stop-color="#3E2DA5" stop-opacity="0.8"/>
<stop offset="1" stop-color="#FFF0F0"/>
</linearGradient>
<radialGradient id="paint40_radial_5_3146" cx="0" cy="0" r="1" gradientUnits="userSpaceOnUse" gradientTransform="translate(114.994 28.2232) rotate(90) scale(2.95032)">
<stop stop-color="white"/>
<stop offset="1" stop-color="#FF38B0" stop-opacity="0"/>
</radialGradient>
<radialGradient id="paint41_radial_5_3146" cx="0" cy="0" r="1" gradientUnits="userSpaceOnUse" gradientTransform="translate(114.994 28.2232) rotate(90) scale(2.95032)">
<stop stop-color="white"/>
<stop offset="1" stop-color="#FF38B0" stop-opacity="0"/>
</radialGradient>
<linearGradient id="paint42_linear_5_3146" x1="0.125787" y1="0.838506" x2="10.7911" y2="0.838506" gradientUnits="userSpaceOnUse">
<stop stop-color="white"/>
<stop offset="0.828125" stop-color="white" stop-opacity="0"/>
</linearGradient>
<radialGradient id="paint43_radial_5_3146" cx="0" cy="0" r="1" gradientUnits="userSpaceOnUse" gradientTransform="translate(4.17165 4.17165) rotate(90) scale(4.17165)">
<stop stop-color="white"/>
<stop offset="1" stop-color="#FF38B0" stop-opacity="0"/>
</radialGradient>
<linearGradient id="paint44_linear_5_3146" x1="0.212064" y1="1.18562" x2="18.1927" y2="1.18562" gradientUnits="userSpaceOnUse">
<stop stop-color="#9EF9FF"/>
<stop offset="0.828125" stop-color="#9CE7FF" stop-opacity="0"/>
</linearGradient>
<radialGradient id="paint45_radial_5_3146" cx="0" cy="0" r="1" gradientUnits="userSpaceOnUse" gradientTransform="translate(5.51902 5.51902) rotate(90) scale(5.51902)">
<stop stop-color="white"/>
<stop offset="1" stop-color="#FF38B0" stop-opacity="0"/>
</radialGradient>
<radialGradient id="paint46_radial_5_3146" cx="0" cy="0" r="1" gradientUnits="userSpaceOnUse" gradientTransform="translate(2.92491 2.92491) rotate(90) scale(2.92491)">
<stop stop-color="white"/>
<stop offset="1" stop-color="#FF38B0" stop-opacity="0"/>
</radialGradient>
<linearGradient id="paint47_linear_5_3146" x1="0.148686" y1="0.831282" x2="12.7556" y2="0.831282" gradientUnits="userSpaceOnUse">
<stop stop-color="#9EF9FF"/>
<stop offset="0.828125" stop-color="#9CE7FF" stop-opacity="0"/>
</linearGradient>
<radialGradient id="paint48_radial_5_3146" cx="0" cy="0" r="1" gradientUnits="userSpaceOnUse" gradientTransform="translate(3.8696 3.8696) rotate(90) scale(3.8696)">
<stop stop-color="white"/>
<stop offset="1" stop-color="#FF38B0" stop-opacity="0"/>
</radialGradient>
<radialGradient id="paint49_radial_5_3146" cx="0" cy="0" r="1" gradientUnits="userSpaceOnUse" gradientTransform="translate(1.8515 1.8515) rotate(90) scale(1.8515)">
<stop stop-color="white"/>
<stop offset="1" stop-color="#FF38B0" stop-opacity="0"/>
</radialGradient>
<linearGradient id="paint50_linear_5_3146" x1="0.0941202" y1="0.526212" x2="8.07446" y2="0.526212" gradientUnits="userSpaceOnUse">
<stop stop-color="#9EF9FF"/>
<stop offset="0.828125" stop-color="#9CE7FF" stop-opacity="0"/>
</linearGradient>
<radialGradient id="paint51_radial_5_3146" cx="0" cy="0" r="1" gradientUnits="userSpaceOnUse" gradientTransform="translate(2.4495 2.4495) rotate(90) scale(2.4495)">
<stop stop-color="white"/>
<stop offset="1" stop-color="#FF38B0" stop-opacity="0"/>
</radialGradient>
<linearGradient id="paint52_linear_5_3146" x1="141.479" y1="40.4854" x2="129.002" y2="26.6847" gradientUnits="userSpaceOnUse">
<stop stop-color="white"/>
<stop offset="1" stop-color="white" stop-opacity="0"/>
</linearGradient>
</defs>
</svg>
