<svg width="226" height="226" viewBox="0 0 226 226" fill="none" xmlns="http://www.w3.org/2000/svg">
<g filter="url(#filter0_d_3_8474)">
<rect x="20" width="186" height="186" rx="93" fill="url(#paint0_linear_3_8474)"/>
</g>
<rect x="27.5" y="7.5" width="171" height="171" rx="85.5" fill="url(#paint1_linear_3_8474)" stroke="white" stroke-width="3" stroke-linejoin="round" stroke-dasharray="9 9"/>
<path d="M140.5 110.5C140.5 111.826 139.973 113.098 139.036 114.036C138.098 114.973 136.826 115.5 135.5 115.5H90.5C89.1739 115.5 87.9021 114.973 86.9645 114.036C86.0268 113.098 85.5 111.826 85.5 110.5V83C85.5 81.6739 86.0268 80.4021 86.9645 79.4645C87.9021 78.5268 89.1739 78 90.5 78H100.5L105.5 70.5H120.5L125.5 78H135.5C136.826 78 138.098 78.5268 139.036 79.4645C139.973 80.4021 140.5 81.6739 140.5 83V110.5Z" stroke="white" stroke-width="4" stroke-linecap="round" stroke-linejoin="round"/>
<path d="M113 105.5C118.523 105.5 123 101.023 123 95.5C123 89.9772 118.523 85.5 113 85.5C107.477 85.5 103 89.9772 103 95.5C103 101.023 107.477 105.5 113 105.5Z" stroke="white" stroke-width="4" stroke-linecap="round" stroke-linejoin="round"/>
<defs>
<filter id="filter0_d_3_8474" x="0" y="0" width="226" height="226" filterUnits="userSpaceOnUse" color-interpolation-filters="sRGB">
<feFlood flood-opacity="0" result="BackgroundImageFix"/>
<feColorMatrix in="SourceAlpha" type="matrix" values="0 0 0 0 0 0 0 0 0 0 0 0 0 0 0 0 0 0 127 0" result="hardAlpha"/>
<feOffset dy="20"/>
<feGaussianBlur stdDeviation="10"/>
<feComposite in2="hardAlpha" operator="out"/>
<feColorMatrix type="matrix" values="0 0 0 0 0.945098 0 0 0 0 0.67451 0 0 0 0 0.239216 0 0 0 0.2 0"/>
<feBlend mode="normal" in2="BackgroundImageFix" result="effect1_dropShadow_3_8474"/>
<feBlend mode="normal" in="SourceGraphic" in2="effect1_dropShadow_3_8474" result="shape"/>
</filter>
<linearGradient id="paint0_linear_3_8474" x1="113" y1="0" x2="113" y2="186" gradientUnits="userSpaceOnUse">
<stop stop-color="#F5DA90"/>
<stop offset="1" stop-color="#F1AC3D"/>
</linearGradient>
<linearGradient id="paint1_linear_3_8474" x1="113" y1="6" x2="113" y2="180" gradientUnits="userSpaceOnUse">
<stop stop-color="#F5DA90"/>
<stop offset="1" stop-color="#F1AC3D"/>
</linearGradient>
</defs>
</svg>
