<svg width="217" height="48" viewBox="0 0 217 48" fill="none" xmlns="http://www.w3.org/2000/svg">
<path d="M45.8 32.56H45.68C45.2 33.4133 44.4267 34.12 43.36 34.68C42.2933 35.2133 41.08 35.48 39.72 35.48C38.9467 35.48 38.1333 35.3733 37.28 35.16C36.4533 34.9733 35.68 34.6533 34.96 34.2C34.2667 33.72 33.68 33.1067 33.2 32.36C32.7467 31.5867 32.52 30.64 32.52 29.52C32.52 28.08 32.92 26.9333 33.72 26.08C34.5467 25.2267 35.6 24.5733 36.88 24.12C38.16 23.6667 39.5733 23.3733 41.12 23.24C42.6933 23.08 44.2267 23 45.72 23V22.52C45.72 21.32 45.28 20.44 44.4 19.88C43.5467 19.2933 42.52 19 41.32 19C40.3067 19 39.3333 19.2133 38.4 19.64C37.4667 20.0667 36.6933 20.5867 36.08 21.2L33.6 18.28C34.6933 17.2667 35.9467 16.5067 37.36 16C38.8 15.4933 40.2533 15.24 41.72 15.24C43.4267 15.24 44.8267 15.48 45.92 15.96C47.04 16.44 47.92 17.0667 48.56 17.84C49.2 18.6133 49.64 19.48 49.88 20.44C50.1467 21.4 50.28 22.36 50.28 23.32V35H45.8V32.56ZM45.72 26.24H44.64C43.8667 26.24 43.0533 26.28 42.2 26.36C41.3467 26.4133 40.56 26.56 39.84 26.8C39.12 27.0133 38.52 27.3333 38.04 27.76C37.56 28.16 37.32 28.72 37.32 29.44C37.32 29.8933 37.4133 30.28 37.6 30.6C37.8133 30.8933 38.08 31.1333 38.4 31.32C38.72 31.5067 39.08 31.64 39.48 31.72C39.88 31.8 40.28 31.84 40.68 31.84C42.3333 31.84 43.5867 31.4 44.44 30.52C45.2933 29.64 45.72 28.44 45.72 26.92V26.24ZM55.8722 15.8H60.4322V18.88H60.5122C60.9389 17.92 61.6722 17.08 62.7122 16.36C63.7789 15.6133 65.0322 15.24 66.4722 15.24C67.7255 15.24 68.7922 15.4667 69.6722 15.92C70.5789 16.3467 71.3122 16.92 71.8722 17.64C72.4589 18.36 72.8855 19.1867 73.1522 20.12C73.4189 21.0533 73.5522 22.0133 73.5522 23V35H68.7522V24.36C68.7522 23.8 68.7122 23.2133 68.6322 22.6C68.5522 21.9867 68.3789 21.44 68.1122 20.96C67.8455 20.4533 67.4722 20.04 66.9922 19.72C66.5389 19.4 65.9255 19.24 65.1522 19.24C64.3789 19.24 63.7122 19.4 63.1522 19.72C62.5922 20.0133 62.1255 20.4 61.7522 20.88C61.4055 21.36 61.1389 21.92 60.9522 22.56C60.7655 23.1733 60.6722 23.8 60.6722 24.44V35H55.8722V15.8ZM79.2334 4.76H84.0334V23.88H84.1534L91.4334 15.8H97.5934L89.2734 24.48L98.1134 35H91.7534L84.1534 25.16H84.0334V35H79.2334V4.76ZM113.689 23.48C113.689 22.8667 113.596 22.28 113.409 21.72C113.249 21.16 112.982 20.6667 112.609 20.24C112.236 19.8133 111.756 19.48 111.169 19.24C110.609 18.9733 109.942 18.84 109.169 18.84C107.729 18.84 106.502 19.28 105.489 20.16C104.502 21.0133 103.956 22.12 103.849 23.48H113.689ZM118.489 25.64C118.489 25.8533 118.489 26.0667 118.489 26.28C118.489 26.4933 118.476 26.7067 118.449 26.92H103.849C103.902 27.6133 104.076 28.2533 104.369 28.84C104.689 29.4 105.102 29.8933 105.609 30.32C106.116 30.72 106.689 31.04 107.329 31.28C107.969 31.52 108.636 31.64 109.329 31.64C110.529 31.64 111.542 31.4267 112.369 31C113.196 30.5467 113.876 29.9333 114.409 29.16L117.609 31.72C115.716 34.28 112.969 35.56 109.369 35.56C107.876 35.56 106.502 35.3333 105.249 34.88C103.996 34.4 102.902 33.7333 101.969 32.88C101.062 32.0267 100.342 30.9867 99.8091 29.76C99.3024 28.5067 99.0491 27.0933 99.0491 25.52C99.0491 23.9733 99.3024 22.5733 99.8091 21.32C100.342 20.04 101.062 18.96 101.969 18.08C102.876 17.1733 103.942 16.48 105.169 16C106.422 15.4933 107.769 15.24 109.209 15.24C110.542 15.24 111.769 15.4667 112.889 15.92C114.036 16.3467 115.022 17 115.849 17.88C116.676 18.7333 117.316 19.8133 117.769 21.12C118.249 22.4 118.489 23.9067 118.489 25.64ZM142.658 35H138.098V32.12H138.018C137.351 33.24 136.418 34.0933 135.218 34.68C134.044 35.2667 132.778 35.56 131.418 35.56C129.951 35.56 128.631 35.2933 127.458 34.76C126.311 34.2 125.324 33.4667 124.498 32.56C123.698 31.6267 123.071 30.5467 122.618 29.32C122.191 28.0667 121.978 26.7333 121.978 25.32C121.978 23.9067 122.204 22.5867 122.658 21.36C123.111 20.1333 123.751 19.0667 124.578 18.16C125.404 17.2533 126.391 16.5467 127.538 16.04C128.684 15.5067 129.938 15.24 131.298 15.24C132.178 15.24 132.964 15.3467 133.658 15.56C134.351 15.7467 134.951 15.9867 135.458 16.28C135.991 16.5733 136.444 16.8933 136.818 17.24C137.191 17.5867 137.498 17.92 137.738 18.24H137.858V4.76H142.658V35ZM126.858 25.32C126.858 26.0667 126.964 26.8133 127.178 27.56C127.418 28.3067 127.764 28.9733 128.218 29.56C128.671 30.1467 129.244 30.6267 129.938 31C130.631 31.3733 131.444 31.56 132.378 31.56C133.258 31.56 134.044 31.3867 134.738 31.04C135.431 30.6667 136.018 30.1867 136.498 29.6C137.004 29.0133 137.378 28.36 137.618 27.64C137.884 26.8933 138.018 26.1467 138.018 25.4C138.018 24.6533 137.884 23.9067 137.618 23.16C137.378 22.4133 137.004 21.7467 136.498 21.16C136.018 20.5733 135.431 20.0933 134.738 19.72C134.044 19.3467 133.258 19.16 132.378 19.16C131.444 19.16 130.631 19.3467 129.938 19.72C129.244 20.0667 128.671 20.5333 128.218 21.12C127.764 21.7067 127.418 22.3733 127.178 23.12C126.964 23.84 126.858 24.5733 126.858 25.32Z" fill="#1B1B1B"/>
<path d="M0 9.23294C0 7.57609 1.34315 6.23294 3 6.23294H9.32876C10.9856 6.23294 12.3288 7.57609 12.3288 9.23294V32C12.3288 33.6569 10.9856 35 9.32876 35H3C1.34314 35 0 33.6569 0 32V9.23294Z" fill="#F8BE17"/>
<path d="M16.4384 9.23288C16.4384 7.57602 17.7815 6.23288 19.4384 6.23288H25.7671C27.424 6.23288 28.7671 7.57603 28.7671 9.23288V15.5616C28.7671 17.2185 27.424 18.5616 25.7671 18.5616H16.4384V9.23288Z" fill="#F8BE17"/>
<path d="M16.4384 22.6712H25.7671C27.424 22.6712 28.7671 24.0144 28.7671 25.6712V32C28.7671 33.6568 27.424 35 25.7671 35H19.4384C17.7815 35 16.4384 33.6568 16.4384 32V22.6712Z" fill="#F8BE17"/>
</svg>
