<svg width="29" height="29" viewBox="0 0 29 29" fill="none" xmlns="http://www.w3.org/2000/svg">
<path d="M0 3.23294C0 1.57609 1.34315 0.232941 3 0.232941H9.32876C10.9856 0.232941 12.3288 1.57609 12.3288 3.23294V26C12.3288 27.6569 10.9856 29 9.32876 29H3C1.34314 29 0 27.6569 0 26V3.23294Z" fill="#F8BE17"/>
<path d="M16.4384 3.23288C16.4384 1.57602 17.7815 0.23288 19.4384 0.23288H25.7671C27.424 0.23288 28.7671 1.57603 28.7671 3.23288V9.56164C28.7671 11.2185 27.424 12.5616 25.7671 12.5616H16.4384V3.23288Z" fill="#F8BE17"/>
<path d="M16.4384 16.6712H25.7671C27.424 16.6712 28.7671 18.0144 28.7671 19.6712V26C28.7671 27.6568 27.424 29 25.7671 29H19.4384C17.7815 29 16.4384 27.6568 16.4384 26V16.6712Z" fill="#F8BE17"/>
</svg>
