<svg width="97" height="97" viewBox="0 0 97 97" fill="none" xmlns="http://www.w3.org/2000/svg">
<g filter="url(#filter0_d_119_967)">
<rect x="20" width="57" height="57" rx="28.5" fill="url(#paint0_linear_119_967)"/>
</g>
<path d="M54.2416 28.599C55.6354 27.5091 56.6543 26.0114 57.1563 24.3147C57.6583 22.618 57.6183 20.807 57.0419 19.1341C56.4655 17.4613 55.3814 16.01 53.9408 14.9827C52.5002 13.9554 50.775 13.4032 49.0056 13.4032C47.2362 13.4032 45.5109 13.9554 44.0704 14.9827C42.6298 16.01 41.5457 17.4613 40.9693 19.1341C40.3929 20.807 40.3529 22.618 40.8548 24.3147C41.3568 26.0114 42.3758 27.5091 43.7696 28.599C41.1362 29.6468 38.8774 31.4598 37.2845 33.8039C35.6916 36.1481 34.8378 38.9158 34.8333 41.75V43.1666C34.8333 43.5423 34.9825 43.9027 35.2482 44.1684C35.5139 44.434 35.8742 44.5833 36.2499 44.5833H61.7499C62.1256 44.5833 62.486 44.434 62.7517 44.1684C63.0173 43.9027 63.1666 43.5423 63.1666 43.1666V41.75C63.163 38.9171 62.3108 36.1503 60.7201 33.8063C59.1293 31.4623 56.8728 29.6486 54.2416 28.599ZM43.3333 21.9166C43.3333 20.7959 43.6656 19.7003 44.2883 18.7684C44.9109 17.8365 45.7959 17.1102 46.8314 16.6813C47.8668 16.2524 49.0062 16.1402 50.1054 16.3588C51.2047 16.5775 52.2144 17.1172 53.0069 17.9097C53.7994 18.7022 54.3391 19.7119 54.5577 20.8111C54.7764 21.9103 54.6641 23.0497 54.2352 24.0852C53.8063 25.1206 53.08 26.0056 52.1481 26.6283C51.2163 27.2509 50.1207 27.5833 48.9999 27.5833C47.497 27.5833 46.0557 26.9863 44.993 25.9236C43.9303 24.8609 43.3333 23.4195 43.3333 21.9166ZM37.6666 41.75C37.6666 38.7442 38.8606 35.8615 40.986 33.7361C43.1115 31.6107 45.9941 30.4166 48.9999 30.4166C52.0057 30.4166 54.8884 31.6107 57.0138 33.7361C59.1392 35.8615 60.3333 38.7442 60.3333 41.75H37.6666Z" fill="white"/>
<defs>
<filter id="filter0_d_119_967" x="0" y="0" width="97" height="97" filterUnits="userSpaceOnUse" color-interpolation-filters="sRGB">
<feFlood flood-opacity="0" result="BackgroundImageFix"/>
<feColorMatrix in="SourceAlpha" type="matrix" values="0 0 0 0 0 0 0 0 0 0 0 0 0 0 0 0 0 0 127 0" result="hardAlpha"/>
<feOffset dy="20"/>
<feGaussianBlur stdDeviation="10"/>
<feComposite in2="hardAlpha" operator="out"/>
<feColorMatrix type="matrix" values="0 0 0 0 0.945098 0 0 0 0 0.67451 0 0 0 0 0.239216 0 0 0 0.2 0"/>
<feBlend mode="normal" in2="BackgroundImageFix" result="effect1_dropShadow_119_967"/>
<feBlend mode="normal" in="SourceGraphic" in2="effect1_dropShadow_119_967" result="shape"/>
</filter>
<linearGradient id="paint0_linear_119_967" x1="48.5" y1="0" x2="48.5" y2="57" gradientUnits="userSpaceOnUse">
<stop stop-color="#F5DA90"/>
<stop offset="1" stop-color="#F1AC3D"/>
</linearGradient>
</defs>
</svg>
