<svg width="410" height="397" viewBox="0 0 410 397" fill="none" xmlns="http://www.w3.org/2000/svg">
<path d="M291.536 437.086C284.912 433.67 276.798 435.808 271.914 441.813C272.773 432.151 268.382 422.807 259.858 418.41C253.235 414.994 245.553 415.362 239.036 418.668C239.258 409.71 234.856 401.184 226.875 397.068C219.492 393.26 210.874 394.108 203.906 398.556C203.115 394.092 200.433 390.097 196.307 387.969C191.149 385.309 184.991 386.188 180.328 389.763C179.005 377.67 172.365 366.822 161.452 361.193C151.082 355.845 170.806 272.226 160.606 277.344C160.921 269.67 125.517 346.508 118.73 343.007C111.726 339.395 103.376 340.793 97.2201 345.797C96.3765 341.169 93.6401 337.146 89.351 334.934C83.6503 331.994 76.8597 333.165 71.9437 337.366C74.0719 326.71 69.6439 315.971 60.3056 311.155C52.1617 306.954 42.389 308.444 35.1865 314.145C34.9596 310.454 33.0342 307.124 29.7766 305.444C27.0077 304.016 23.8101 304.085 20.9807 305.306C21.3732 293.617 15.8015 282.564 5.43165 277.215C-9.17307 269.683 -27.6736 276.5 -35.9065 292.462L-202.502 577.488L129.009 748.475L297.621 459.539C301.961 451.124 299.246 441.063 291.536 437.086Z" fill="#F2C244"/>
<path opacity="0.5" d="M196.671 213.021C187.522 208.115 176.355 211.298 171.665 220.15C159.458 243.185 167.993 267.139 151.469 298.323C167.993 267.139 192.519 260.916 204.726 237.881C209.417 229.029 205.82 217.928 196.671 213.021Z" fill="#F8DB4A"/>
<path d="M196.801 212.953C190.668 209.664 183.119 211.816 179.974 217.75C171.819 233.141 177.56 249.266 166.526 270.088C177.56 249.266 194.067 245.073 202.222 229.682C205.263 223.692 202.935 216.243 196.801 212.953Z" fill="#F8DB4A"/>
<path d="M205.802 222.775L183.541 210.661C182.523 210.112 182.025 208.824 182.603 207.731L184.754 203.659L210.886 217.858L208.734 221.93C208.157 223.023 206.821 223.324 205.802 222.775Z" fill="url(#paint0_linear_3_1423)"/>
<path d="M244.543 188.662L248.591 216.497C249.079 219.853 248.108 223.199 245.897 225.621L224.571 249.097C223.886 249.889 222.587 249.578 222.18 248.586L210.356 217.086L244.543 188.662Z" fill="#F2C244"/>
<path d="M190.511 159.407L165.184 171.321C162.148 172.784 159.934 175.461 159.173 178.663L151.525 209.493C151.255 210.508 152.235 211.422 153.279 211.209L185.801 203.808L190.511 159.407Z" fill="#F2C244"/>
<path d="M259.389 96.4791C223.803 102.941 176.529 158.283 180.873 198.981C181.014 200.219 181.625 201.323 182.66 201.878L213.898 218.915C214.932 219.471 216.13 219.468 217.283 218.796C253.591 200.191 273.661 129.98 259.389 96.4791Z" fill="url(#paint1_linear_3_1423)"/>
<path d="M259.688 96.3564C246.906 98.5943 232.651 107.364 219.854 119.363C212.062 114.65 262.531 142.619 262.531 142.619C265.429 125.158 264.808 108.37 259.688 96.3564Z" fill="#F2C244"/>
<path d="M219.582 170.862C227.544 175.155 237.303 172.365 241.38 164.632C245.458 156.899 242.308 147.15 234.346 142.858C226.384 138.565 216.624 141.355 212.547 149.088C208.47 156.822 211.619 166.57 219.582 170.862Z" fill="#FFF2AF"/>
<path d="M239.344 161.482C237.005 168.181 229.674 171.547 222.76 169.104C215.898 166.56 212.239 159.194 214.476 152.439C216.868 145.64 224.301 142.329 231.216 144.773C238.077 147.317 241.684 154.782 239.344 161.482Z" fill="#E6AB2D"/>
<path d="M239.3 161.49C240.256 158.67 240.129 155.651 239.274 153.009C239.116 153.308 238.959 153.608 238.904 153.963C238.373 155.473 237.944 157.038 236.796 158.215C235.753 159.192 234.145 159.736 232.699 159.47C230.634 159.126 228.736 157.461 226.618 157.216C223.983 156.95 221.792 159.104 219.104 158.938C217.812 158.882 216.68 158.272 215.756 157.517C215.088 157.028 214.37 156.385 214.016 155.552C213.653 161.258 217.169 166.875 222.942 168.961C229.64 171.548 237.118 168.139 239.3 161.49Z" fill="#E67100"/>
<g opacity="0.4">
<path opacity="0.4" d="M232.455 147.59C232.249 147.479 231.941 147.313 231.736 147.202C231.428 147.036 231.17 147.025 230.962 147.169C230.651 147.258 230.546 147.457 230.389 147.757C230.126 148.256 230.327 148.876 230.84 149.153L230.943 149.209C231.148 149.32 231.354 149.43 231.559 149.541C231.867 149.707 232.125 149.718 232.436 149.63C232.746 149.541 232.954 149.397 233.112 149.097C233.169 148.488 232.968 147.867 232.455 147.59Z" fill="white"/>
<path opacity="0.4" d="M228.836 146.606C228.682 146.395 228.373 146.229 228.114 146.217C225.115 145.885 222.156 146.73 219.86 148.574C219.391 148.963 219.436 149.63 219.743 150.052C219.846 150.108 219.896 150.263 219.999 150.319C220.411 150.541 220.826 150.508 221.243 150.219C223.121 148.663 225.457 147.996 227.836 148.251C228.095 148.262 228.407 148.173 228.615 148.029C228.824 147.884 228.982 147.584 228.984 147.328C229.09 147.128 229.092 146.873 228.836 146.606Z" fill="white"/>
</g>
<path d="M184.027 194.248C183.575 196.856 183.174 199.621 182.827 202.285L196.694 209.694C196.7 209.179 196.602 208.608 196.555 208.195C196.466 206.852 196.482 205.565 196.497 204.278C196.424 201.649 196.614 199.03 196.752 196.254C197.185 190.915 197.984 185.643 199.202 180.336C201.587 169.823 205.437 159.575 210.592 149.894C213.274 145.11 216.06 140.381 219.367 135.931L220.542 134.227L221.822 132.579L224.38 129.283L227.148 126.099L228.531 124.506L230.019 122.97C237.569 114.828 246.263 107.556 255.471 101.078C245.489 106.495 236.018 112.963 227.374 120.391L225.732 121.715L224.14 123.196L220.955 126.158L217.98 129.231L216.492 130.768L215.001 132.562C211.118 136.834 207.653 141.33 204.289 146.138C197.668 155.554 192.45 166.107 188.536 177.228C186.581 182.66 185.148 188.37 184.027 194.248Z" fill="white"/>
<path d="M183.827 236.694C181.531 235.469 180.724 232.706 181.749 230.532L195.899 202.973C197.568 199.589 199.709 196.327 202.213 193.388L212.13 181.32L214.531 182.602L209.937 197.511C208.79 201.174 207.329 204.67 205.397 208.044L190.203 235.045C188.916 237.208 186.124 237.92 183.827 236.694Z" fill="url(#paint2_linear_3_1423)"/>
<defs>
<linearGradient id="paint0_linear_3_1423" x1="194.647" y1="216.771" x2="197.873" y2="210.78" gradientUnits="userSpaceOnUse">
<stop stop-color="white"/>
<stop offset="0.129" stop-color="#EFF6FF"/>
<stop offset="0.5153" stop-color="#C6DFFF"/>
<stop offset="0.8188" stop-color="#ACD0FF"/>
<stop offset="1" stop-color="#A2CBFF"/>
</linearGradient>
<linearGradient id="paint1_linear_3_1423" x1="208.379" y1="110.9" x2="237.708" y2="213.09" gradientUnits="userSpaceOnUse">
<stop stop-color="white"/>
<stop offset="0.2088" stop-color="#FBFDFF"/>
<stop offset="0.416" stop-color="#EFF6FF"/>
<stop offset="0.6226" stop-color="#DBEBFF"/>
<stop offset="0.8275" stop-color="#BFDBFF"/>
<stop offset="1" stop-color="#A2CBFF"/>
</linearGradient>
<linearGradient id="paint2_linear_3_1423" x1="191.257" y1="187.356" x2="204.114" y2="232.382" gradientUnits="userSpaceOnUse">
<stop stop-color="#FDD661"/>
<stop offset="0.0001" stop-color="#F0CD1D"/>
<stop offset="0.5015" stop-color="#F8DB4A"/>
<stop offset="1" stop-color="#FFE667"/>
</linearGradient>
</defs>
</svg>
