<svg width="300" height="274" viewBox="0 0 300 274" fill="none" xmlns="http://www.w3.org/2000/svg">
<path d="M155.5 274C220.393 274 273 221.393 273 156.5C273 91.6065 220.393 39 155.5 39C90.6065 39 38 91.6065 38 156.5C38 221.393 90.6065 274 155.5 274Z" fill="url(#paint0_linear_194_824)"/>
<path d="M84.6654 202L134.039 66.4232L238.157 176.512L117.229 232.024C97.858 240.916 77.3717 222.028 84.6654 202Z" fill="#E1DCEB"/>
<path d="M199.57 109.239C213.945 124.556 225.533 139.741 232.648 151.902C236.208 157.986 238.634 163.289 239.739 167.459C240.292 169.544 240.507 171.32 240.383 172.756C240.26 174.187 239.804 175.247 239.045 175.959C238.286 176.672 237.2 177.06 235.763 177.092C234.323 177.125 232.564 176.798 230.517 176.114C226.426 174.747 221.287 171.99 215.441 168.052C203.755 160.18 189.334 147.655 174.958 132.338C160.583 117.022 148.995 101.837 141.88 89.6757C138.32 83.5916 135.894 78.2886 134.789 74.1185C134.236 72.0331 134.021 70.257 134.145 68.8214C134.268 67.3898 134.724 66.3306 135.483 65.6182C136.242 64.9057 137.328 64.5176 138.765 64.4851C140.205 64.4525 141.964 64.7796 144.01 65.4632C148.102 66.8301 153.241 69.5873 159.087 73.5253C170.773 81.3967 185.194 93.9223 199.57 109.239Z" fill="#011625" stroke="#011625"/>
<mask id="mask0_194_824" style="mask-type:alpha" maskUnits="userSpaceOnUse" x="83" y="66" width="156" height="169">
<path d="M84.6654 202L134.039 66.4232L238.157 176.512L117.229 232.024C97.858 240.916 77.3717 222.028 84.6654 202Z" fill="#E1DCEB"/>
</mask>
<g mask="url(#mask0_194_824)">
<path fill-rule="evenodd" clip-rule="evenodd" d="M131.723 156.574C110.863 129.256 100.309 96.687 96.9043 74.8213L113.702 72.2061C116.766 91.888 126.438 121.641 145.235 146.257C163.854 170.641 191.096 189.657 229.946 189.657V206.657C184.606 206.657 152.76 184.124 131.723 156.574Z" fill="#011625"/>
<path fill-rule="evenodd" clip-rule="evenodd" d="M133.963 151.35C113.102 124.031 102.548 91.4625 99.1436 69.5968L115.941 66.9816C119.005 86.6635 128.677 116.416 147.474 141.032C166.094 165.417 193.335 184.432 232.185 184.432V201.432C186.846 201.432 155 178.9 133.963 151.35Z" fill="white"/>
<path fill-rule="evenodd" clip-rule="evenodd" d="M107.093 190.907C86.2333 163.588 75.6787 131.02 72.2744 109.154L89.0721 106.539C92.1363 126.221 101.808 155.974 120.605 180.59C139.225 204.974 166.466 223.99 205.316 223.99V240.99C159.976 240.99 128.131 218.457 107.093 190.907Z" fill="white"/>
</g>
<circle cx="180" cy="213" r="30" fill="#59BF78"/>
<path fill-rule="evenodd" clip-rule="evenodd" d="M192.139 203.897C193.301 205.078 193.285 206.978 192.103 208.139L177.861 222.139C176.693 223.287 174.822 223.287 173.655 222.139L167.897 216.48C166.715 215.318 166.699 213.419 167.861 212.237C169.022 211.056 170.921 211.039 172.103 212.201L175.758 215.793L187.897 203.86C189.079 202.699 190.978 202.715 192.139 203.897Z" fill="white"/>
<path d="M238.664 69.7691L238.664 69.7689C240.439 65.2606 241.147 60.7643 241.888 56.0515C242.015 55.2485 242.142 54.4392 242.276 53.6225L238.664 69.7691ZM238.664 69.7691C238.362 70.5386 237.489 70.9192 236.72 70.6153L236.718 70.6142C235.948 70.3152 235.568 69.4453 235.87 68.6768L235.87 68.6767M238.664 69.7691L235.87 68.6767M235.87 68.6767C237.564 64.3725 238.232 60.0623 238.911 55.6856M235.87 68.6767L238.911 55.6856M238.911 55.6856C239.042 54.84 239.174 53.9919 239.313 53.141L238.911 55.6856ZM241.037 51.9025C241.855 52.0374 242.409 52.8067 242.276 53.6224L239.313 53.1407C239.448 52.323 240.22 51.7679 241.037 51.9025Z" fill="#011625" stroke="#011625"/>
<path d="M248.983 81.7937L248.982 81.7941C248.303 82.2657 247.367 82.096 246.893 81.4179C246.422 80.7429 246.588 79.8108 247.268 79.3381C257.337 72.368 267.201 62.9816 274.538 53.1485L274.538 53.1482C275.031 52.4864 275.972 52.3489 276.639 52.8418C277.302 53.3322 277.44 54.27 276.947 54.9329C269.429 65.0107 259.31 74.6399 248.983 81.7937Z" fill="#011625" stroke="#011625"/>
<path d="M276.696 88.385L276.696 88.3841C276.468 87.5905 275.636 87.1298 274.838 87.3554C267.397 89.4841 259.065 90.7203 251.399 88.3813L251.398 88.3813C250.605 88.139 249.766 88.5864 249.526 89.3718L249.526 89.3721C249.285 90.1568 249.73 90.9972 250.522 91.2394L276.696 88.385ZM276.696 88.385C276.923 89.1702 276.467 89.9999 275.667 90.2314M276.696 88.385L275.667 90.2314M275.667 90.2314C267.571 92.5446 258.653 93.7214 250.522 91.2394L275.667 90.2314Z" fill="#011625" stroke="#011625"/>
<circle cx="250.999" cy="106" r="6" fill="#6859B4"/>
<circle cx="200.999" cy="44" r="6" fill="#6859B4"/>
<path d="M212.542 70.4607C212.024 68.3167 208.974 68.3167 208.457 70.4607L207.786 73.2378C207.601 74.004 207.003 74.6022 206.237 74.7872L203.46 75.4576C201.316 75.9751 201.316 79.0248 203.46 79.5423L206.237 80.2127C207.003 80.3977 207.601 80.9959 207.786 81.7621L208.457 84.5392C208.974 86.6833 212.024 86.6832 212.542 84.5392L213.212 81.7621C213.397 80.9959 213.995 80.3977 214.761 80.2127L217.538 79.5423C219.682 79.0248 219.682 75.9751 217.538 75.4576L214.761 74.7872C213.995 74.6022 213.397 74.004 213.212 73.2378L212.542 70.4607Z" fill="#6859B4"/>
<path fill-rule="evenodd" clip-rule="evenodd" d="M186.965 24.3105C187.571 25.8524 186.813 27.5939 185.271 28.2003C180.869 29.931 175.229 35.5057 171.463 42.4445C168.597 47.7262 167.204 53.0603 167.789 57.4256C169.55 54.9118 171.658 52.8497 174.104 51.5251C178.487 49.1506 183.489 49.4026 188.331 52.7024C192.562 55.5856 194.287 59.6882 193.83 63.7759C193.394 67.6843 191.01 71.2175 187.775 73.4372C184.492 75.69 180.133 76.7289 175.637 75.352C173.088 74.5714 170.643 73.0621 168.406 70.7703C166.272 79.0786 166.349 89.4857 169.876 98.6899C170.469 100.237 169.696 101.972 168.148 102.565C166.601 103.158 164.866 102.384 164.274 100.837C159.622 88.6982 160.226 74.8347 164.019 64.7377C163.912 64.543 163.805 64.3456 163.699 64.1456C159.708 56.6111 162.098 47.1223 166.19 39.5825C170.313 31.9844 176.853 25.0633 183.075 22.6165C184.617 22.0101 186.358 22.7686 186.965 24.3105ZM170.756 64.2219C173.022 67.4405 175.373 68.9961 177.394 69.615C179.939 70.3942 182.42 69.8353 184.38 68.49C186.389 67.1115 187.651 65.0462 187.868 63.1094C188.064 61.3519 187.45 59.3625 184.952 57.6606C181.787 55.5034 179.187 55.5951 176.962 56.8008C174.742 58.0031 172.544 60.5189 170.756 64.2219Z" fill="#E3E3E3"/>
<path fill-rule="evenodd" clip-rule="evenodd" d="M283.808 141.642C252.362 129.954 228.297 144.487 220.516 152.707C218.617 154.713 215.453 154.799 213.447 152.901C211.442 151.002 211.355 147.838 213.254 145.832C223.136 135.393 251.267 118.878 287.292 132.268C289.881 133.23 291.199 136.108 290.237 138.697C289.275 141.285 286.397 142.604 283.808 141.642Z" fill="#CCC6D9"/>
<path fill-rule="evenodd" clip-rule="evenodd" d="M251.818 152.149C252.519 151.892 253.258 151.55 253.827 151.056C254.503 150.469 254.779 149.712 254.963 148.916C255.2 147.893 255.295 146.804 255.583 145.779C255.689 145.399 255.894 145.255 255.982 145.191C256.204 145.03 256.429 144.987 256.64 145.003C256.891 145.022 257.235 145.119 257.461 145.551C257.493 145.612 257.535 145.706 257.563 145.835C257.584 145.93 257.597 146.225 257.619 146.347C257.673 146.647 257.719 146.947 257.762 147.249C257.904 148.253 257.986 149.106 258.436 150.028C259.046 151.281 259.657 152.047 260.486 152.387C261.288 152.715 262.247 152.653 263.471 152.396C263.588 152.367 263.703 152.342 263.818 152.322C264.358 152.225 264.874 152.589 264.98 153.142C265.086 153.694 264.743 154.232 264.208 154.354C264.096 154.379 263.986 154.403 263.877 154.425C262.222 154.846 260.306 156.349 259.192 157.665C258.849 158.07 258.346 159.205 257.834 159.928C257.456 160.462 257.03 160.814 256.674 160.938C256.434 161.022 256.233 161.009 256.066 160.967C255.824 160.906 255.623 160.771 255.469 160.557C255.385 160.439 255.308 160.282 255.271 160.082C255.253 159.985 255.251 159.74 255.251 159.629C255.147 159.259 255.019 158.899 254.926 158.526C254.704 157.637 254.268 157.075 253.75 156.331C253.265 155.635 252.745 155.198 251.983 154.849C251.883 154.824 251.083 154.623 250.8 154.507C250.387 154.338 250.19 154.054 250.119 153.901C249.997 153.641 249.985 153.415 250.009 153.226C250.045 152.947 250.167 152.708 250.383 152.515C250.517 152.396 250.717 152.279 250.985 152.222C251.192 152.178 251.741 152.152 251.818 152.149ZM256.514 150.7C256.551 150.785 256.591 150.87 256.632 150.956C257.526 152.791 258.526 153.815 259.74 154.312L259.781 154.328C258.968 154.948 258.233 155.641 257.671 156.305C257.439 156.579 257.133 157.147 256.801 157.729C256.501 156.724 256.009 156.014 255.39 155.125C254.917 154.447 254.422 153.936 253.813 153.52C254.286 153.271 254.736 152.979 255.129 152.639C255.782 152.071 256.214 151.414 256.514 150.7Z" fill="#6859B4"/>
<path d="M77.783 154.891L77.7832 154.891C78.4586 154.283 78.5167 153.238 77.9088 152.558C77.304 151.875 76.2591 151.817 75.5819 152.426C71.0674 156.489 68.4943 161.529 67.751 167.549C67.6372 168.455 68.2823 169.282 69.1818 169.396L69.1825 169.396C70.0884 169.511 70.9131 168.866 71.0217 167.96C71.6655 162.745 73.8786 158.403 77.783 154.891Z" fill="#011625" stroke="#011625"/>
<path d="M54.1405 166.423C57.8733 168.962 60.4662 175.139 62.393 181.944C65.004 191.161 66.2663 201.575 66.8591 206.464C66.9477 207.195 67.0213 207.803 67.0823 208.265L54.1405 166.423ZM54.1405 166.423L53.8593 166.836C53.8593 166.836 53.8593 166.836 53.8593 166.836L54.1405 166.423ZM22.4355 175.435L22.4354 175.435C22.2193 176.506 21.728 177.418 20.9468 177.98L22.4355 175.435ZM22.4355 175.435C22.6414 174.413 22.595 173.202 22.4292 172.075M22.4355 175.435L22.4292 172.075M22.4292 172.075C22.2801 171.061 22.0294 170.082 21.7517 169.321L22.4292 172.075ZM70.1521 207.207L69.6553 207.15L70.1518 207.209C70.1519 207.208 70.152 207.207 70.1521 207.207ZM17.8966 169.205C17.2423 170.328 16.6786 171.508 16.227 172.736C16.0065 173.334 15.6322 174.629 15.7141 175.72C15.7999 176.911 16.379 177.942 17.5944 178.336L17.5947 178.336C19.0166 178.795 20.1273 178.569 20.9466 177.98L17.8966 169.205ZM-5.33839 162.677C-5.33851 162.677 -5.33863 162.678 -5.33874 162.678C-5.33882 162.678 -5.3389 162.678 -5.33898 162.678L-5.06085 163.093L-5.33839 162.677ZM20.174 166.755C20.0678 166.621 19.9602 166.488 19.8514 166.357C19.745 166.491 19.6401 166.625 19.5365 166.761C19.6454 166.893 19.7529 167.027 19.8589 167.163C19.9625 167.026 20.0675 166.89 20.174 166.755ZM68.7289 199.209C68.6657 198.772 68.5998 198.325 68.5311 197.87C68.4238 198.309 68.3203 198.748 68.2208 199.189C68.2918 199.678 68.3594 200.156 68.4237 200.62C68.5207 200.148 68.6225 199.678 68.7289 199.209ZM91.0793 150.582C91.0789 150.582 91.0786 150.582 91.0782 150.581C91.0779 150.581 91.0775 150.581 91.0772 150.58L90.7604 150.967L91.0793 150.582ZM67.0021 210.006C67.0025 210.006 67.0029 210.007 67.0033 210.007C67.0043 210.009 67.0054 210.011 67.0064 210.012L67.4268 209.742L67.0021 210.006ZM24.1842 166.472C24.1842 166.472 24.1842 166.472 24.1842 166.472L23.833 166.116L24.1842 166.472ZM19.2051 174.774L19.205 174.775C19.1701 174.947 19.14 175.071 19.1018 175.165C19.0729 175.237 19.0484 175.268 19.034 175.282C19.0279 175.282 19.0187 175.282 19.0055 175.282C19.0035 175.282 19.0013 175.282 18.9992 175.281C18.9992 175.278 18.9993 175.275 18.9994 175.272C19.0255 174.801 19.1792 174.279 19.2926 173.957C19.2841 174.248 19.2561 174.524 19.2051 174.774Z" fill="#011625" stroke="#011625"/>
<defs>
<linearGradient id="paint0_linear_194_824" x1="154.594" y1="0.739115" x2="157.001" y2="413.381" gradientUnits="userSpaceOnUse">
<stop stop-color="#F2F2F2"/>
<stop offset="1" stop-color="#EFEFEF"/>
</linearGradient>
</defs>
</svg>
