<svg width="381" height="290" viewBox="0 0 381 290" fill="none" xmlns="http://www.w3.org/2000/svg">
<path d="M274.38 126.44C271.022 119.702 260.562 121.278 257.718 129.24C258.078 128.708 259.448 129.362 273.824 126.304C273.932 126.28 274.044 126.288 274.147 126.327C274.249 126.366 274.338 126.434 274.402 126.524C274.398 126.49 274.39 126.464 274.38 126.44Z" fill="#000001"/>
<path d="M274.44 126.546L274.404 126.516C274.34 126.426 274.251 126.358 274.149 126.319C274.046 126.28 273.934 126.272 273.826 126.296C258.626 129.532 257.672 128.562 257.642 129.466C257.031 131.795 257.307 134.268 258.415 136.406C259.524 138.543 261.387 140.193 263.642 141.036C265.893 141.743 268.331 141.553 270.445 140.506C272.559 139.459 274.187 137.635 274.988 135.416C275.519 133.98 275.744 132.45 275.65 130.923C275.556 129.396 275.144 127.905 274.44 126.546Z" fill="white"/>
<path d="M243.553 131.618C242.331 131.84 242.849 133.704 244.067 133.482L254.331 131.612C255.553 131.39 255.035 129.526 253.817 129.748L243.553 131.618Z" fill="#000001"/>
<path d="M227.213 173.708C219.839 152.252 205.423 135.814 183.433 131.49C176.498 129.923 169.275 130.182 162.471 132.242C162.541 132.606 162.885 134.408 162.989 134.944C163.221 136.162 161.355 136.68 161.123 135.46C161.033 134.986 160.711 133.306 160.641 132.94C156.862 134.488 153.579 137.041 151.149 140.322C150.229 141.568 149.488 142.938 148.949 144.39C149.371 144.292 161.549 141.626 167.191 140.272C167.33 140.236 167.477 140.256 167.602 140.327C167.727 140.398 167.819 140.514 167.861 140.652C168.295 142.728 168.961 144.748 169.431 146.818C169.464 146.959 169.441 147.108 169.366 147.233C169.292 147.358 169.171 147.448 169.031 147.486C168.333 147.658 164.045 146.222 160.561 147.12C158.065 147.764 155.003 150.07 156.101 153.03C156.815 154.95 159.131 155.568 160.901 156.03C164.617 156.844 168.373 157.464 172.155 157.888C172.245 157.913 172.327 157.961 172.393 158.028C172.459 158.094 172.507 158.176 172.533 158.266C172.607 158.542 172.691 158.814 172.769 159.09C176.003 159.546 179.12 160.617 181.953 162.244C183.969 163.445 185.689 165.085 186.983 167.044C190.442 165.737 194.15 165.224 197.835 165.544C202.2 166.092 206.253 168.097 209.337 171.236C213.488 175.549 216.386 180.911 217.723 186.746C220.823 182.67 223.629 178.346 226.365 174.038C226.414 173.961 226.481 173.897 226.562 173.854C226.642 173.81 226.732 173.788 226.824 173.789C226.915 173.791 227.005 173.815 227.084 173.861C227.163 173.906 227.23 173.971 227.277 174.05C227.27 173.933 227.249 173.818 227.213 173.708Z" fill="white"/>
<path d="M119.151 247.828C114.428 238.827 112.451 228.638 113.465 218.524C108.248 216.194 103.025 213.886 97.8505 211.748L97.8265 211.734C97.5363 211.627 97.294 211.42 97.1435 211.15C96.9931 210.88 96.9445 210.565 97.0065 210.262C97.0836 210.027 97.2216 209.816 97.4065 209.652C97.1545 208.528 86.2065 160.478 85.9685 159.424C85.932 159.285 85.9513 159.137 86.0223 159.011C86.0933 158.886 86.2103 158.794 86.3485 158.754C92.2945 157.438 131.349 148.452 131.767 148.354C119.59 136.636 97.3385 135.644 84.9245 149.754C85.2885 151.276 85.5785 152.554 85.9425 154.184C86.2125 155.398 84.3425 155.912 84.0785 154.698C84.0425 154.544 83.4085 151.764 83.3765 151.628C80.0309 156.072 77.6031 161.138 76.2345 166.53C69.9209 166.501 63.7229 168.223 58.3285 171.504C36.0965 185.304 21.8685 219 28.4345 245.422C29.185 248.707 30.6233 251.796 32.6544 254.485C34.6856 257.174 37.2636 259.402 40.2185 261.022C46.4545 264.486 53.8425 267.022 60.9425 264.956C67.0442 262.95 72.245 258.861 75.6325 253.404C79.8185 247.004 81.6165 239.586 83.0665 232.174C84.9185 252.328 103.94 275.95 125.353 275.088C131.064 274.934 136.564 272.895 140.994 269.288C131.687 263.66 124.303 257.57 119.151 247.828Z" fill="white"/>
<path d="M67.2925 288.168C57.7724 280.694 46.0152 276.638 33.9116 276.654C21.808 276.669 10.0614 280.755 0.560506 288.254C0.160506 288.562 0.512506 289.198 0.944506 289.182H67.0185C67.1358 289.177 67.2485 289.136 67.3403 289.063C67.4321 288.989 67.4982 288.889 67.5288 288.776C67.5594 288.662 67.553 288.542 67.5105 288.433C67.4679 288.324 67.3916 288.231 67.2925 288.168Z" fill="#000001"/>
<path d="M301.213 180.52C297.459 163.182 285.447 152.894 273.613 151.12C260.791 149.204 248.683 156.196 240.245 165.272C236.006 169.886 232.305 174.968 229.213 180.418C228.987 179.566 227.541 174.322 227.279 174.034C227.232 173.955 227.166 173.889 227.087 173.843C227.007 173.798 226.917 173.773 226.826 173.772C226.734 173.77 226.644 173.793 226.563 173.837C226.483 173.88 226.415 173.944 226.367 174.022C223.631 178.338 220.825 182.654 217.725 186.73C219.537 193.562 219.829 199.258 221.159 207.456C223.097 219.408 230.523 222.086 235.635 219.38C235.646 219.235 235.693 219.095 235.771 218.973C235.849 218.85 235.956 218.749 236.083 218.678C239.953 216.448 241.811 212.232 243.367 208.23C243.438 207.985 243.602 207.778 243.824 207.652C244.046 207.526 244.308 207.491 244.555 207.554C244.802 207.622 245.011 207.786 245.138 208.009C245.265 208.232 245.298 208.496 245.231 208.744C243.587 212.974 241.581 217.234 237.761 219.86C252.865 230.846 259.511 240.66 268.633 258.644C271.773 255.146 274.469 251.274 276.659 247.114C277.237 246.01 278.907 246.99 278.329 248.09C275.937 252.624 272.968 256.829 269.497 260.6C269.398 260.719 269.266 260.808 269.119 260.855C268.971 260.902 268.812 260.906 268.663 260.866C264.815 265.123 260.475 268.907 255.733 272.138C248.985 276.414 240.193 277.66 232.133 277.552C219.997 277.388 208.621 274.14 199.565 265.848C190.771 257.348 184.819 246.34 182.523 234.328C181.463 228.359 180.913 222.311 180.879 216.25C170.267 220.14 156.251 225.144 145.455 228.374C144.689 228.602 140.665 229.774 140.037 229.9C139.475 229.933 138.916 229.794 138.437 229.5C137.527 229.12 113.809 218.67 113.459 218.514C112.639 226.119 113.563 233.81 116.16 241.005C118.757 248.199 122.959 254.708 128.447 260.036C132.955 264.108 137.909 267.659 143.215 270.62C154.335 277.208 163.615 281.938 174.561 284.684C194.719 289.579 215.726 289.831 235.997 285.42C246.075 283.158 255.49 278.586 263.501 272.066C281.315 257.947 293.958 238.331 299.459 216.276C302.391 204.742 303.755 192.26 301.213 180.52ZM150.813 236.92C151.06 236.857 151.322 236.892 151.544 237.018C151.765 237.144 151.93 237.351 152.003 237.596C152.233 238.182 155.965 247.75 157.603 251.948C157.671 252.195 157.638 252.46 157.511 252.683C157.384 252.906 157.174 253.07 156.927 253.138C156.68 253.197 156.42 253.16 156.199 253.034C155.978 252.909 155.814 252.704 155.739 252.462C155.509 251.876 151.777 242.308 150.139 238.11C150.073 237.864 150.106 237.602 150.232 237.381C150.358 237.16 150.566 236.997 150.811 236.928L150.813 236.92ZM139.285 253.906L141.857 237.596C141.925 237.349 142.089 237.139 142.312 237.012C142.535 236.885 142.799 236.852 143.047 236.92C143.289 236.995 143.494 237.16 143.619 237.382C143.744 237.603 143.78 237.863 143.721 238.11C143.615 238.78 141.151 254.42 141.151 254.42C141.082 254.667 140.918 254.877 140.695 255.003C140.472 255.13 140.208 255.163 139.961 255.096C139.719 255.021 139.515 254.857 139.389 254.638C139.263 254.419 139.225 254.16 139.283 253.914L139.285 253.906ZM125.059 245.67C125.485 245.236 132.259 238.366 135.227 235.364C136.103 234.478 137.469 235.846 136.595 236.732L126.425 247.036C125.547 247.932 124.181 246.564 125.057 245.678L125.059 245.67Z" fill="#F8BE17"/>
<path d="M176.797 199.11C176.287 200.599 175.652 202.041 174.897 203.422C174.252 204.6 173.234 205.53 172.003 206.066C170.772 206.602 169.398 206.714 168.097 206.384C166.983 205.916 166.046 205.109 165.419 204.076C164.793 203.044 164.509 201.839 164.609 200.636C164.753 198.773 164.994 196.919 165.333 195.082C158.599 198.186 156.025 202.198 151.569 201.906C150.322 201.81 149.152 201.266 148.276 200.374C147.399 199.483 146.875 198.304 146.801 197.056C143.943 197.884 99.0605 210.902 98.3185 211.108C98.1796 211.145 98.0314 211.126 97.9063 211.055C97.7812 210.984 97.6893 210.866 97.6505 210.728C97.5685 210.37 97.4885 210.01 97.4065 209.652C97.3805 209.678 97.3565 209.708 97.3325 209.736C97.1889 209.884 97.0854 210.066 97.0317 210.265C96.978 210.464 96.9758 210.673 97.0254 210.873C97.075 211.074 97.1748 211.258 97.3153 211.409C97.4558 211.559 97.6324 211.672 97.8285 211.736L97.8525 211.75C106.725 215.414 134.121 227.704 138.453 229.512C138.932 229.806 139.491 229.945 140.053 229.912C140.667 229.79 144.553 228.66 145.471 228.386C156.103 225.206 170.471 220.09 180.895 216.262C180.683 209.512 180.321 204.706 176.797 199.11Z" fill="#EAEAEA"/>
<path d="M172.537 158.262C172.511 158.172 172.463 158.09 172.397 158.024C172.331 157.957 172.249 157.909 172.159 157.884C168.377 157.464 164.62 156.844 160.905 156.026C159.131 155.568 156.815 154.95 156.105 153.026C155.007 150.066 158.069 147.76 160.565 147.116C163.295 146.693 166.082 146.817 168.765 147.482C168.857 147.504 168.953 147.503 169.045 147.477C169.136 147.452 169.22 147.403 169.287 147.336C169.354 147.269 169.403 147.186 169.429 147.094C169.455 147.003 169.457 146.906 169.435 146.814C168.965 144.744 168.299 142.724 167.865 140.648C167.823 140.51 167.731 140.394 167.606 140.323C167.481 140.252 167.334 140.232 167.195 140.268C161.555 141.62 92.2885 157.43 86.3445 158.75C86.2069 158.791 86.0905 158.883 86.0197 159.008C85.9489 159.133 85.9291 159.281 85.9645 159.42C86.7845 162.758 97.5645 210.366 97.6465 210.724C97.6853 210.862 97.7772 210.98 97.9023 211.051C98.0274 211.122 98.1756 211.141 98.3145 211.104C99.0565 210.904 143.939 197.88 146.797 197.052C146.577 193.612 149.915 189.622 152.179 186.98C150.876 186.734 149.662 186.149 148.659 185.283C147.656 184.417 146.9 183.302 146.467 182.05C146.239 180.629 146.553 179.175 147.346 177.975C148.138 176.775 149.353 175.916 150.749 175.568C151.843 173.846 152.949 172.122 153.949 170.342L143.581 163.458C142.547 162.772 143.517 161.098 144.557 161.788C144.557 161.788 152.435 167.094 155.725 169.202C155.94 169.337 156.095 169.549 156.159 169.795C156.224 170.041 156.192 170.302 156.071 170.526C155.163 172.2 154.151 173.828 153.125 175.44C155.983 175.768 158.115 176.826 162.207 176.364C166.024 175.896 169.734 174.788 173.183 173.086C173.967 172.634 176.171 171.356 176.489 171.168C175.581 168.316 173.313 161.128 172.537 158.262ZM137.111 162.88C134.777 171.794 132.169 180.636 129.527 189.464C129.449 189.7 129.283 189.896 129.064 190.013C128.845 190.131 128.589 190.159 128.35 190.093C128.111 190.027 127.906 189.872 127.778 189.659C127.65 189.446 127.609 189.192 127.663 188.95C129.997 180.036 132.603 171.194 135.245 162.366C135.317 162.123 135.482 161.919 135.703 161.797C135.924 161.674 136.185 161.644 136.429 161.711C136.673 161.778 136.88 161.938 137.008 162.156C137.135 162.375 137.172 162.634 137.111 162.88ZM107.731 181.068C111.157 176.512 114.582 171.955 118.005 167.398C118.137 167.18 118.349 167.021 118.596 166.957C118.843 166.892 119.106 166.925 119.329 167.05C119.549 167.18 119.71 167.392 119.775 167.64C119.84 167.888 119.804 168.152 119.675 168.374L110.113 181.098C114.351 182.666 118.649 184.072 122.875 185.678C123.119 185.75 123.326 185.914 123.452 186.136C123.578 186.359 123.612 186.621 123.549 186.868C123.48 187.114 123.316 187.324 123.094 187.45C122.871 187.576 122.607 187.609 122.361 187.542C117.707 185.774 112.961 184.258 108.309 182.49C107.793 182.292 107.321 181.614 107.731 181.068Z" fill="white"/>
<path d="M176.047 197.984C174.812 195.971 172.836 194.523 170.545 193.954C168.734 193.809 166.921 194.199 165.331 195.076C164.992 196.913 164.751 198.767 164.607 200.63C164.507 201.833 164.791 203.038 165.417 204.07C166.044 205.103 166.981 205.91 168.095 206.378C169.396 206.708 170.77 206.596 172.001 206.06C173.232 205.524 174.25 204.594 174.895 203.416C175.65 202.035 176.285 200.593 176.795 199.104C176.561 198.734 176.313 198.36 176.047 197.984Z" fill="white"/>
<path d="M220.925 22.3837C219.458 17.0812 217.282 12.0012 214.455 7.28174C213.23 4.92923 211.817 2.67986 210.229 0.55574C209.961 0.20974 209.429 0.445742 209.319 0.795742C207.182 6.52822 206.101 12.6002 206.129 18.7177C206.336 24.8628 208.217 30.8347 211.569 35.9897C213.663 39.0298 216.298 41.6588 219.343 43.7457C219.403 43.7876 219.471 43.8158 219.544 43.8284C219.616 43.841 219.69 43.8376 219.761 43.8186C219.832 43.7995 219.898 43.7653 219.954 43.7181C220.01 43.671 220.055 43.6122 220.087 43.5457C223.129 36.8417 222.731 29.3277 220.925 22.3837Z" fill="#EAEAEA"/>
<path d="M123.549 186.868C123.612 186.621 123.578 186.359 123.452 186.137C123.326 185.914 123.119 185.75 122.875 185.678C118.649 184.078 114.351 182.666 110.113 181.098L119.675 168.374C119.804 168.152 119.84 167.888 119.775 167.64C119.71 167.392 119.549 167.18 119.329 167.05C119.106 166.925 118.843 166.892 118.596 166.957C118.349 167.021 118.137 167.18 118.005 167.398C114.581 171.954 111.156 176.51 107.731 181.068C107.331 181.614 107.793 182.292 108.309 182.49C112.963 184.258 117.709 185.774 122.361 187.542C122.607 187.609 122.871 187.576 123.094 187.45C123.316 187.324 123.48 187.114 123.549 186.868Z" fill="#000001"/>
<path d="M155.727 169.202C152.436 167.094 144.558 161.788 144.558 161.788C143.518 161.098 142.558 162.772 143.582 163.458L153.957 170.346C152.957 172.126 151.845 173.85 150.757 175.572C151.536 175.398 152.339 175.353 153.133 175.44C154.159 173.828 155.171 172.2 156.079 170.526C156.199 170.302 156.23 170.04 156.165 169.794C156.099 169.548 155.943 169.336 155.727 169.202Z" fill="#000001"/>
<path d="M135.245 162.366C132.601 171.194 129.997 180.036 127.663 188.95C127.609 189.192 127.65 189.446 127.778 189.659C127.906 189.872 128.111 190.027 128.35 190.093C128.589 190.159 128.845 190.131 129.064 190.014C129.283 189.896 129.449 189.7 129.526 189.464C132.168 180.636 134.779 171.796 137.111 162.88C137.172 162.634 137.135 162.375 137.008 162.156C136.88 161.938 136.673 161.778 136.429 161.711C136.185 161.644 135.924 161.674 135.703 161.797C135.482 161.919 135.317 162.123 135.245 162.366Z" fill="#000001"/>
<path d="M357.003 201.83C340.381 216.154 326.671 244.984 321.981 266.584C321.885 219.318 321.581 200.234 318.355 168.216C332.731 168.656 346.701 162.984 354.457 150.294C354.498 150.233 354.526 150.165 354.538 150.093C354.551 150.02 354.547 149.946 354.528 149.876C354.509 149.805 354.475 149.739 354.428 149.683C354.381 149.627 354.323 149.581 354.257 149.55C350.946 147.996 347.355 147.132 343.7 147.009C340.046 146.887 336.404 147.508 332.998 148.836C329.591 150.164 326.489 152.171 323.882 154.735C321.275 157.299 319.216 160.366 317.831 163.75C316.234 150.472 313.833 137.304 310.641 124.318C306.178 109.268 298.115 95.5318 287.149 84.2997C274.921 71.6997 261.773 63.4017 245.249 56.0157C243.173 55.0377 241.049 54.0157 238.969 53.0537C250.911 45.9497 257.369 25.7177 248.545 9.25373C248.502 9.18289 248.443 9.12262 248.374 9.07743C248.305 9.03223 248.226 9.00327 248.144 8.9927C248.062 8.98212 247.979 8.99021 247.9 9.01636C247.821 9.04251 247.75 9.08605 247.691 9.14373C237.531 18.9557 230.371 29.9997 232.745 43.9797C233.324 47.3353 234.611 50.5292 236.519 53.3497C229.62 52.3797 222.613 52.5018 215.753 53.7117C210.154 54.7086 204.86 56.9816 200.282 60.3547C195.704 63.7277 191.964 68.11 189.353 73.1617C189.317 73.235 189.297 73.315 189.294 73.3965C189.292 73.4779 189.306 73.559 189.337 73.6345C189.368 73.71 189.414 73.7782 189.473 73.8345C189.532 73.8909 189.602 73.9343 189.679 73.9617C204.309 80.0157 220.573 77.7177 232.131 65.2037C234.918 62.2526 237.188 58.8531 238.847 55.1477C254.955 62.6617 266.447 67.7477 280.495 80.5477C292.952 91.5996 302.336 105.689 307.733 121.444C309.422 126.805 310.763 132.271 311.747 137.806C320.903 185.02 319.867 228.148 320.095 282.908C320.106 283.157 320.213 283.392 320.393 283.564C320.573 283.736 320.812 283.832 321.062 283.832C321.311 283.832 321.55 283.736 321.73 283.564C321.91 283.392 322.017 283.157 322.029 282.908C321.671 259.344 339.395 219.046 358.377 203.188C359.327 202.4 357.953 201.038 357.003 201.83Z" fill="#EAEAEA"/>
<path d="M269.499 260.606C272.97 256.835 275.939 252.63 278.33 248.096C278.908 246.996 277.238 246.016 276.66 247.12C274.471 251.28 271.775 255.152 268.634 258.65C269.434 260.25 269.52 259.948 268.664 260.872C268.814 260.912 268.973 260.908 269.121 260.861C269.268 260.814 269.4 260.725 269.499 260.606Z" fill="white"/>
<path d="M245.233 208.75C245.3 208.502 245.267 208.238 245.14 208.015C245.013 207.792 244.804 207.628 244.557 207.56C244.309 207.497 244.048 207.532 243.826 207.658C243.604 207.784 243.44 207.991 243.369 208.236C241.813 212.236 239.955 216.454 236.085 218.684C235.958 218.755 235.851 218.856 235.773 218.979C235.695 219.101 235.648 219.241 235.637 219.386C235.819 219.298 236.005 219.216 236.183 219.114C236.266 219.065 236.36 219.039 236.457 219.039C236.553 219.039 236.647 219.065 236.731 219.114C237.077 219.362 237.419 219.616 237.763 219.866C241.581 217.24 243.581 212.984 245.233 208.75Z" fill="white"/>
<path d="M269.201 259.738C265.56 252.165 261.302 244.904 256.471 238.03C250.996 230.663 244.323 224.269 236.731 219.114C236.647 219.065 236.553 219.039 236.457 219.039C236.36 219.039 236.266 219.065 236.183 219.114C230.721 222.254 223.129 219.604 221.161 207.462C219.043 194.4 218.911 180.702 209.341 171.226C206.257 168.087 202.204 166.082 197.839 165.534C190.953 164.774 184.381 167.85 177.977 170.876C178.12 170.96 178.239 171.08 178.322 171.223C178.406 171.367 178.451 171.529 178.453 171.696C178.455 171.862 178.414 172.025 178.335 172.171C178.255 172.317 178.139 172.44 177.999 172.528C164.375 180.382 159.369 182.47 153.913 187.272C153.771 187.399 153.596 187.483 153.408 187.513C153.22 187.543 153.027 187.518 152.853 187.441C152.679 187.363 152.531 187.237 152.427 187.078C152.323 186.918 152.267 186.732 152.267 186.542C152.275 186.326 152.358 186.12 152.503 185.96C156.753 181.774 163.903 178.442 173.185 173.086C169.736 174.788 166.026 175.896 162.209 176.364C158.009 176.838 156.021 175.764 153.127 175.44C152.223 175.294 151.298 175.363 150.426 175.643C149.555 175.923 148.762 176.405 148.112 177.05C147.463 177.696 146.976 178.485 146.69 179.355C146.404 180.224 146.328 181.149 146.469 182.054C146.902 183.306 147.658 184.421 148.661 185.287C149.664 186.153 150.878 186.738 152.181 186.984C150.221 189.272 147.199 192.984 146.835 195.914C146.722 196.623 146.757 197.347 146.938 198.042C147.12 198.736 147.443 199.386 147.887 199.95C148.332 200.513 148.888 200.979 149.521 201.317C150.155 201.655 150.851 201.858 151.567 201.914C156.063 202.208 158.767 198.058 165.331 195.09C166.92 194.211 168.734 193.821 170.545 193.968C172.836 194.537 174.812 195.985 176.047 197.998C183.279 208.02 179.205 216.86 182.525 234.342C184.821 246.354 190.773 257.362 199.567 265.862C208.627 274.158 220.003 277.402 232.135 277.566C240.193 277.674 248.985 276.43 255.735 272.152C260.477 268.921 264.817 265.137 268.665 260.88C269.023 260.486 269.445 260.204 269.201 259.738ZM211.513 259.908C208.835 259.223 206.22 258.311 203.697 257.182C203.475 257.052 203.314 256.84 203.249 256.592C203.184 256.343 203.22 256.08 203.349 255.858C203.484 255.643 203.696 255.487 203.942 255.423C204.188 255.359 204.449 255.39 204.673 255.512C207.053 256.549 209.512 257.395 212.027 258.042C212.269 258.114 212.473 258.279 212.595 258.5C212.718 258.722 212.749 258.982 212.682 259.226C212.614 259.47 212.454 259.678 212.236 259.805C212.017 259.932 211.758 259.969 211.513 259.908Z" fill="white"/>
<path d="M212.027 258.042C209.512 257.395 207.053 256.549 204.673 255.512C204.449 255.39 204.188 255.359 203.942 255.423C203.696 255.487 203.484 255.643 203.349 255.858C203.22 256.08 203.184 256.343 203.249 256.592C203.314 256.84 203.475 257.052 203.697 257.182C206.22 258.311 208.835 259.223 211.513 259.908C211.758 259.969 212.017 259.932 212.236 259.805C212.454 259.678 212.614 259.47 212.682 259.226C212.749 258.982 212.718 258.722 212.595 258.5C212.473 258.279 212.269 258.114 212.027 258.042Z" fill="#F8BE17"/>
<path d="M167.123 176.512C163.593 178.351 160.158 180.367 156.831 182.552C155.322 183.598 153.876 184.734 152.503 185.952C152.386 186.083 152.308 186.245 152.28 186.419C152.251 186.593 152.272 186.771 152.341 186.933C152.409 187.095 152.522 187.235 152.666 187.335C152.811 187.436 152.981 187.494 153.157 187.502C153.292 187.518 153.43 187.504 153.56 187.463C153.69 187.422 153.81 187.354 153.913 187.264C158.897 182.878 163.941 180.524 170.233 177.01C172.845 175.552 175.409 174.01 177.999 172.52C179.077 171.9 178.045 170.214 177.023 170.852C176.849 170.968 169.153 175.384 167.123 176.512Z" fill="#F8BE17"/>
<path d="M103.883 128.016C102.755 124.03 99.9005 115.016 99.7325 114.452C99.6933 114.313 99.601 114.195 99.4755 114.124C99.3501 114.053 99.2017 114.034 99.0625 114.072C95.0785 115.2 86.0625 118.05 85.4985 118.222C85.3599 118.261 85.2423 118.352 85.1711 118.478C85.0999 118.603 85.081 118.751 85.1185 118.89C86.4165 122.824 89.1025 131.89 89.2705 132.454C89.3093 132.592 89.4012 132.71 89.5263 132.781C89.6514 132.852 89.7996 132.871 89.9385 132.834C93.9225 131.706 102.939 128.852 103.503 128.684C103.641 128.644 103.758 128.552 103.829 128.428C103.9 128.303 103.919 128.155 103.883 128.016Z" fill="#F8BE17"/>
<path d="M127.169 121.818C126.061 120.736 116.923 112.204 116.651 112.07C116.582 112.027 116.505 112 116.425 111.991C116.345 111.982 116.264 111.99 116.188 112.016C116.111 112.041 116.041 112.083 115.983 112.139C115.925 112.195 115.88 112.263 115.851 112.338C115.601 112.724 113.279 119.138 111.223 125.122C111.079 125.542 111.515 125.868 111.891 125.79L126.937 122.726C127.027 122.698 127.108 122.648 127.173 122.58C127.238 122.512 127.285 122.428 127.308 122.337C127.331 122.246 127.331 122.15 127.306 122.059C127.282 121.968 127.234 121.885 127.169 121.818Z" fill="#EAEAEA"/>
<path d="M141.391 111.702C140.798 110.325 139.79 109.167 138.508 108.39C137.226 107.613 135.733 107.256 134.239 107.368C132.933 107.443 131.687 107.938 130.687 108.781C129.687 109.623 128.986 110.766 128.691 112.04C127.423 117.826 134.585 122.166 139.307 118.676C140.348 117.884 141.112 116.782 141.486 115.529C141.861 114.275 141.827 112.935 141.391 111.702Z" fill="#F8BE17"/>
<path d="M76.4745 107.862C75.4018 107.019 74.1582 106.42 72.8305 106.107C71.5027 105.794 70.1227 105.775 68.7865 106.05C66.3865 106.772 63.8705 109.25 65.2365 111.878C65.8891 112.864 66.7458 113.699 67.7489 114.326C68.7519 114.953 69.8778 115.357 71.0505 115.512C73.4745 115.974 76.5605 116.054 78.2085 113.872C79.8565 111.69 78.3365 109.29 76.4745 107.862Z" fill="#F8BE17"/>
<path d="M52.9145 102.764C52.7545 102.528 53.4645 102.868 39.4985 97.5637C38.9285 97.3457 38.6785 98.0997 38.9705 98.4717L45.4885 106.824C45.574 106.908 45.6848 106.962 45.804 106.978C45.9232 106.993 46.0442 106.969 46.1485 106.91L52.6325 103.634C52.7232 103.614 52.8071 103.572 52.876 103.509C52.9448 103.447 52.9961 103.368 53.0247 103.28C53.0533 103.192 53.0581 103.098 53.0388 103.007C53.0194 102.917 52.9766 102.833 52.9145 102.764Z" fill="#EAEAEA"/>
<path d="M69.4465 93.7537L62.8805 88.5537C62.8236 88.4652 62.7363 88.4005 62.635 88.3717C62.5337 88.343 62.4254 88.3523 62.3305 88.3977L52.9305 92.0557C52.5945 92.1877 52.3305 92.6817 52.6905 92.9657L59.3805 98.3477C59.4486 98.4152 59.5332 98.4636 59.6258 98.4882C59.7185 98.5128 59.8159 98.5126 59.9085 98.4877L69.1985 94.6637C69.5365 94.5277 69.8065 94.0397 69.4465 93.7537Z" fill="#F8BE17"/>
<path d="M379.98 217.934C376.295 216.791 372.427 216.357 368.58 216.656C364.75 216.723 360.936 217.167 357.192 217.982C350.535 219.371 344.643 223.212 340.686 228.744C338.401 231.946 336.496 235.403 335.008 239.046C334.868 239.39 335.208 239.72 335.532 239.734C342.974 240.056 352.332 239.558 359.198 236.752C364.818 234.097 369.938 230.493 374.334 226.1C376.647 223.925 378.654 221.446 380.3 218.732C380.458 218.476 380.38 218.136 379.98 217.934Z" fill="#EAEAEA"/>
<path d="M337.866 199.072C337.804 198.979 337.712 198.909 337.606 198.872C337.554 198.834 337.495 198.808 337.431 198.795C337.368 198.783 337.303 198.785 337.24 198.801C337.178 198.817 337.12 198.846 337.07 198.887C337.02 198.928 336.98 198.98 336.952 199.038L336.926 199.074C336.887 199.134 336.861 199.202 336.848 199.274C334.659 204.931 334.185 211.108 335.484 217.034C336.043 219.232 337.021 221.302 338.364 223.13C338.414 223.21 338.484 223.275 338.566 223.321C338.648 223.367 338.74 223.39 338.834 223.39C338.929 223.39 339.021 223.367 339.103 223.321C339.185 223.275 339.255 223.21 339.304 223.13C343.69 216.184 342.202 205.534 337.866 199.072Z" fill="#EAEAEA"/>
<path d="M183.959 113.632V95.8537C183.947 95.6049 183.84 95.37 183.66 95.1979C183.48 95.0258 183.241 94.9297 182.992 94.9297C182.742 94.9297 182.503 95.0258 182.323 95.1979C182.143 95.37 182.036 95.6049 182.025 95.8537V113.632C182.036 113.881 182.143 114.116 182.323 114.288C182.503 114.46 182.742 114.556 182.992 114.556C183.241 114.556 183.48 114.46 183.66 114.288C183.84 114.116 183.947 113.881 183.959 113.632Z" fill="#000001"/>
<path d="M189.267 116.316C189.489 116.44 189.751 116.473 189.998 116.408C190.244 116.343 190.456 116.185 190.588 115.968L203.86 98.5837C203.99 98.3621 204.026 98.0984 203.961 97.8503C203.896 97.6022 203.735 97.3899 203.515 97.2597C203.292 97.1355 203.029 97.1024 202.782 97.1673C202.536 97.2321 202.324 97.39 202.19 97.6077L188.92 114.984C188.855 115.094 188.812 115.216 188.794 115.342C188.776 115.469 188.783 115.598 188.816 115.722C188.848 115.846 188.904 115.962 188.982 116.064C189.059 116.166 189.156 116.251 189.267 116.316Z" fill="#000001"/>
<path d="M211.281 114.646L195.903 121.194C195.681 121.323 195.52 121.535 195.455 121.783C195.39 122.031 195.426 122.294 195.555 122.516C195.69 122.731 195.902 122.887 196.148 122.952C196.394 123.016 196.655 122.985 196.879 122.864L212.257 116.316C212.367 116.252 212.463 116.167 212.54 116.066C212.617 115.964 212.673 115.849 212.706 115.726C212.738 115.603 212.746 115.475 212.728 115.349C212.711 115.223 212.669 115.101 212.605 114.992C212.472 114.774 212.259 114.616 212.012 114.552C211.765 114.487 211.503 114.521 211.281 114.646Z" fill="#000001"/>
<path d="M136.593 236.74C137.467 235.854 136.101 234.486 135.225 235.372C132.263 238.372 125.483 245.244 125.057 245.678C124.181 246.564 125.547 247.932 126.423 247.044C128.435 245.008 132.881 240.5 136.593 236.74Z" fill="#000001"/>
<path d="M143.045 236.928C142.797 236.86 142.533 236.893 142.31 237.02C142.087 237.147 141.923 237.357 141.855 237.604L139.282 253.914C139.223 254.161 139.259 254.421 139.385 254.643C139.511 254.864 139.716 255.028 139.959 255.104C140.206 255.171 140.47 255.138 140.693 255.011C140.916 254.885 141.08 254.675 141.149 254.428C141.149 254.428 143.613 238.788 143.719 238.118C143.778 237.871 143.742 237.611 143.617 237.39C143.492 237.168 143.287 237.003 143.045 236.928Z" fill="#000001"/>
<path d="M152.001 237.604C151.928 237.359 151.763 237.152 151.542 237.026C151.32 236.9 151.058 236.865 150.811 236.928C150.563 236.996 150.354 237.16 150.227 237.383C150.101 237.606 150.068 237.871 150.137 238.118C151.775 242.318 155.507 251.884 155.737 252.47C155.812 252.712 155.976 252.917 156.197 253.042C156.418 253.168 156.678 253.205 156.925 253.146C157.172 253.077 157.382 252.914 157.509 252.691C157.636 252.468 157.669 252.203 157.601 251.956C149.635 231.538 152.851 239.784 152.001 237.604Z" fill="#000001"/>
<path d="M22.7805 193.45C24.5879 187.015 28.0535 181.168 32.8305 176.494C33.7305 175.63 32.3605 174.264 31.4625 175.126C26.3568 179.96 22.7041 186.125 20.9165 192.926C20.8626 193.168 20.9038 193.422 21.0318 193.635C21.1598 193.848 21.3647 194.003 21.6041 194.069C21.8435 194.135 22.0991 194.107 22.318 193.99C22.537 193.872 22.7026 193.676 22.7805 193.44V193.45Z" fill="#000001"/>
<path d="M29.0305 171.482C29.9625 170.654 28.5885 169.282 27.6625 170.116C21.5497 175.577 16.7379 182.339 13.5805 189.904C13.5465 190.026 13.537 190.154 13.5525 190.28C13.568 190.406 13.6082 190.527 13.6708 190.638C13.7334 190.748 13.8172 190.845 13.9174 190.923C14.0175 191.001 14.1321 191.058 14.2545 191.092C14.5029 191.158 14.7674 191.125 14.9916 190.999C15.2157 190.873 15.3818 190.664 15.4545 190.418C18.5186 183.177 23.1561 176.708 29.0305 171.482Z" fill="#000001"/>
<path d="M84.7205 108.226C84.8506 108.447 85.063 108.607 85.3111 108.672C85.5592 108.737 85.8229 108.701 86.0445 108.572C86.2626 108.439 86.4206 108.228 86.4852 107.981C86.5498 107.734 86.5158 107.472 86.3905 107.25L81.6805 97.1198C81.5487 96.9005 81.3357 96.7421 81.0877 96.6792C80.8397 96.6163 80.5769 96.6538 80.3565 96.7838C80.1385 96.916 79.9804 97.128 79.9158 97.3747C79.8513 97.6214 79.8852 97.8836 80.0105 98.1058L84.7205 108.226Z" fill="#F8BE17"/>
<path d="M88.8645 106.46C88.9376 106.706 89.1038 106.914 89.3278 107.04C89.5519 107.166 89.8161 107.199 90.0645 107.134C90.3114 107.066 90.5211 106.902 90.6475 106.679C90.7739 106.456 90.8066 106.193 90.7385 105.946L86.5745 95.3657C86.4992 95.1229 86.3343 94.9179 86.1133 94.7923C85.8922 94.6667 85.6316 94.63 85.3845 94.6897C85.1371 94.758 84.9269 94.9216 84.8001 95.1448C84.6734 95.3679 84.6404 95.6323 84.7085 95.8797L88.8645 106.46Z" fill="#F8BE17"/>
<path d="M71.9025 93.0197C71.9778 93.2626 72.1427 93.4676 72.3638 93.5932C72.5848 93.7188 72.8454 93.7554 73.0925 93.6957C73.3396 93.6271 73.5493 93.4632 73.6756 93.2401C73.802 93.017 73.8347 92.7529 73.7665 92.5057C72.4239 89.1471 71.0812 85.7897 69.7385 82.4337C69.6633 82.1909 69.4983 81.9858 69.2773 81.8603C69.0562 81.7347 68.7956 81.698 68.5485 81.7577C68.3011 81.826 68.0909 81.9896 67.9641 82.2128C67.8374 82.4359 67.8044 82.7003 67.8725 82.9477C69.2165 86.3051 70.5599 89.6624 71.9025 93.0197Z" fill="#F8BE17"/>
<path d="M146.951 117.41C147.066 113.511 146.911 109.609 146.487 105.732C146.478 105.478 146.373 105.237 146.193 105.057C146.014 104.878 145.772 104.774 145.519 104.766C145.262 104.766 145.017 104.868 144.835 105.049C144.654 105.23 144.553 105.476 144.553 105.732C144.969 109.61 145.124 113.511 145.017 117.41C145.028 117.659 145.135 117.893 145.315 118.066C145.495 118.238 145.734 118.334 145.984 118.334C146.233 118.334 146.472 118.238 146.652 118.066C146.832 117.893 146.939 117.659 146.951 117.41Z" fill="#F8BE17"/>
<path d="M54.4265 120.024C66.0265 122.524 73.5885 125.802 78.5885 136.752C81.0757 142.515 82.9163 148.537 84.0765 154.706C84.3465 155.92 86.2105 155.406 85.9405 154.192C85.7105 153.154 85.0265 150.192 84.9225 149.762C79.6605 127.876 72.0045 122.416 58.0685 118.898C37.6205 113.736 11.7265 113.794 7.81851 92.1997C7.59851 90.9777 5.73851 91.4937 5.95451 92.7137C9.72251 114.09 34.6185 115.758 54.4265 120.024Z" fill="white"/>
<path d="M161.123 135.46C161.357 136.68 163.219 136.164 162.989 134.944C159.939 118.888 156.571 103.292 143.679 93.1437C131.855 83.8437 115.387 86.5017 102.597 80.5317C96.1552 77.5448 91.1326 72.1635 88.5965 65.5317C88.2865 64.7137 88.0425 63.8757 87.7965 63.0377C87.7186 62.802 87.553 62.6051 87.334 62.488C87.1151 62.3708 86.8595 62.3423 86.6201 62.4083C86.3807 62.4743 86.1758 62.6298 86.0478 62.8427C85.9199 63.0555 85.8786 63.3093 85.9325 63.5517C87.7713 70.5218 92.1827 76.5362 98.2785 80.3838C116.015 91.7338 139.555 80.6537 153.437 108.484C157.621 116.862 159.363 126.236 161.123 135.46Z" fill="white"/>
<path d="M266.31 141.944C267.848 141.885 269.353 141.479 270.713 140.758C272.072 140.036 273.251 139.017 274.162 137.776C275.072 136.535 275.69 135.104 275.971 133.591C276.251 132.078 276.186 130.52 275.78 129.036C274.47 123.422 269.04 119.584 262.522 123.036C252.682 128.276 257.03 141.944 266.31 141.944ZM259.81 128.228C262.664 123.28 269.424 122.132 272.362 126.05C268.208 126.854 263.992 127.584 259.81 128.228ZM258.95 130.402C263.44 129.742 268.176 128.92 273.408 127.888C273.993 129.219 274.253 130.67 274.165 132.121C274.078 133.573 273.646 134.982 272.906 136.234C272.326 137.299 271.488 138.203 270.471 138.864C269.453 139.525 268.287 139.922 267.077 140.02C265.867 140.117 264.652 139.912 263.542 139.422C262.432 138.933 261.46 138.174 260.716 137.216C259.929 136.285 259.362 135.19 259.056 134.01C258.751 132.83 258.714 131.597 258.95 130.402Z" fill="#000001"/>
<path d="M67.5345 287.85C57.938 280.337 46.098 276.262 33.9106 276.278C21.7233 276.294 9.89376 280.399 0.316491 287.936C0.175257 288.061 0.0749916 288.226 0.0287121 288.409C-0.0175675 288.592 -0.00772418 288.785 0.0569656 288.963C0.121655 289.14 0.238203 289.294 0.391477 289.404C0.544751 289.515 0.727672 289.577 0.916491 289.582H67.0305C67.2301 289.574 67.4224 289.504 67.5799 289.382C67.7375 289.259 67.8523 289.09 67.9081 288.898C67.964 288.706 67.9579 288.501 67.8908 288.313C67.8237 288.125 67.6991 287.963 67.5345 287.85ZM63.9985 287.694H3.82849C12.6421 281.51 23.147 278.193 33.9135 278.193C44.6799 278.193 55.1849 281.51 63.9985 287.694Z" fill="#000001"/>
<path d="M281.442 153.09C264.522 145.15 246.642 155.426 235.194 170.62C233.082 173.42 231.194 176.374 229.364 179.364C226.327 167.032 220.201 155.675 211.564 146.364C197.872 132.06 176.665 127.006 162.4 131.874C161.187 124.478 159.175 117.236 156.4 110.274C153.736 103.551 149.351 97.6455 143.686 93.1497C131.864 83.8497 115.396 86.5077 102.606 80.5377C96.1655 77.5502 91.1432 72.1691 88.6065 65.5377C88.2985 64.7197 88.0525 63.8817 87.8065 63.0437C87.7286 62.8079 87.563 62.6111 87.344 62.4939C87.1251 62.3767 86.8695 62.3482 86.6301 62.4142C86.3906 62.4803 86.1858 62.6358 86.0578 62.8486C85.9298 63.0614 85.8885 63.3153 85.9425 63.5577C87.7808 70.5241 92.1891 76.5359 98.2805 80.3837C116.014 91.7337 139.554 80.6537 153.436 108.486C156.899 116.151 159.302 124.252 160.58 132.566C157.968 133.554 155.578 135.052 153.55 136.973C151.522 138.894 149.896 141.2 148.768 143.756C144.622 144.706 134.068 147.146 131.568 147.722C131.548 147.644 131.504 147.574 131.442 147.522C118.058 135.828 96.5545 135.922 84.8085 149.296C79.5805 127.84 71.9285 122.396 58.0685 118.898C37.1925 113.628 11.7045 113.682 7.81849 92.1997C7.59849 90.9777 5.74049 91.4937 5.95449 92.7137C10.7245 119.784 49.4725 115.316 67.0205 124.048C76.9285 128.98 80.7065 140.326 83.2645 151.168C79.8412 155.608 77.3489 160.694 75.9365 166.12C66.1105 166.034 56.1045 170.772 47.7465 179.52C35.5638 192.318 28.1182 208.894 26.6425 226.502C25.6965 237.876 26.9165 252.958 38.1125 260.232C42.0802 262.733 46.4303 264.568 50.9905 265.666C58.7305 267.36 66.6565 264.486 72.7425 257.782C78.6465 251.28 81.2445 242.944 82.9705 234.682C86.0205 254.162 103.946 275.518 124.336 275.518C130.324 275.529 136.145 273.55 140.884 269.892C140.923 269.861 140.956 269.824 140.98 269.782C142.835 270.904 144.722 271.972 146.6 273.048C160.954 281.272 168.832 283.968 177.822 285.91C198.012 290.277 218.93 290.004 238.998 285.11C264.598 278.342 292.198 250.91 300.556 213.54C303.19 201.76 304.198 189.032 300.836 177.292C297.924 167.104 291.2 157.668 281.442 153.09ZM202.16 140.926C213.476 148.69 221.394 161.058 225.72 174.024C223.21 177.932 220.656 181.824 217.878 185.54C213.744 170.996 202.678 161.504 188.214 166.204C185.856 162.666 182.32 160.078 178.234 158.9C174.849 157.83 171.373 157.075 167.848 156.646C165.514 156.34 158.648 155.376 157.154 153.544C156.756 153.002 156.552 152.341 156.576 151.669C156.6 150.996 156.85 150.352 157.286 149.84C158.176 148.785 159.389 148.055 160.736 147.762C163.354 147.39 166.019 147.514 168.59 148.128C168.796 148.178 169.011 148.174 169.214 148.117C169.418 148.06 169.603 147.951 169.752 147.802C169.902 147.652 170.01 147.467 170.067 147.263C170.123 147.06 170.127 146.845 170.076 146.64C169.606 144.572 168.941 142.552 168.507 140.476C168.416 140.17 168.21 139.912 167.933 139.754C167.657 139.597 167.329 139.552 167.02 139.63C161.752 140.894 156.448 141.992 151.168 143.202C160.214 127.108 186.496 130.184 202.16 140.926ZM173.18 193.322C168.38 190.684 162.814 194.122 158.29 197.17C155.419 199.11 153.451 200.54 150.814 200.002C150.086 199.724 149.469 199.214 149.058 198.551C148.647 197.888 148.466 197.108 148.542 196.332C148.901 194.487 149.727 192.765 150.942 191.332C153.514 187.784 161.722 182.344 168.224 178.372C178.07 172.356 178.824 171.96 184.212 169.698C191.706 166.552 198.776 165.44 205.444 169.982C207.217 171.208 208.802 172.686 210.15 174.368C220.852 187.528 216.494 207.15 222.86 216.568C226.06 221.31 231.394 223.356 236.36 220.714C249.16 229.978 256.602 238.114 267.548 259.844C265.918 261.6 264.208 263.276 262.442 264.896C257.076 269.814 252.997 272.794 245.812 274.632C242.973 275.333 240.078 275.783 237.16 275.978C225.694 276.74 213.594 274.432 204.216 267.69C198.541 263.442 193.866 258.001 190.522 251.75C178.322 229.912 185.536 211.902 179.322 199.9C177.982 197.14 175.841 194.848 173.18 193.322ZM130.468 262.4C133.26 264.712 136.208 266.829 139.29 268.736C131.754 274.566 120.29 275.224 110.69 270.36C96.2725 263.058 84.4165 244.946 84.4345 229.108C84.4345 228.424 84.4345 227.74 84.4025 227.056C84.3485 226.006 82.7365 225.754 82.5405 226.856C80.4645 238.584 77.8785 253.18 66.3045 260.828C63.7551 262.6 60.815 263.73 57.7347 264.12C54.6544 264.51 51.5254 264.15 48.6145 263.07C45.3345 262.017 42.1989 260.558 39.2805 258.728C32.4805 254.38 28.9185 246.628 28.3965 235.024C28.085 225.151 29.7232 215.314 33.2175 206.076C36.7118 196.837 41.9935 188.379 48.7605 181.184C62.8525 165.972 78.5205 166.112 87.6545 170.856C87.7386 170.9 87.8358 170.913 87.9285 170.892C93.8845 196.866 96.9145 210.714 97.0265 210.942C97.1965 211.382 97.1765 211.458 98.5805 212.068C100.296 212.812 104.144 214.354 113.074 218.332C112.14 226.54 113.238 234.852 116.271 242.537C119.304 250.221 124.179 257.042 130.468 262.4ZM86.1685 158.114C85.8633 158.205 85.6052 158.41 85.4482 158.687C85.2912 158.964 85.2476 159.291 85.3265 159.6C86.0605 162.6 86.7265 165.6 87.4065 168.618C84.3954 167.258 81.1678 166.441 77.8725 166.204C81.5345 152.804 90.7785 143.538 102.672 141.368C107.353 140.544 112.157 140.73 116.76 141.914C121.363 143.097 125.66 145.252 129.362 148.232C120.202 150.356 92.0225 156.814 86.1685 158.114ZM101.768 210.8L146.266 197.918C146.534 199.266 147.273 200.475 148.351 201.327C149.429 202.18 150.775 202.62 152.148 202.57C156.286 202.388 158.77 199.19 164.482 196.232C164.283 197.516 164.113 198.808 163.98 200.1C163.795 201.787 164.208 203.486 165.148 204.9C167.589 208.522 172.858 207.7 175.132 204.3C175.882 203.162 176.487 201.935 176.932 200.648C177.368 201.424 177.768 202.216 178.132 203.026C179.482 206.513 180.152 210.226 180.106 213.966C169.52 217.85 151.464 224.384 139.778 227.466C126.968 222.164 114.542 216.234 101.768 210.8ZM166.38 200.248C166.528 198.436 166.834 196.632 167.138 194.848C168.185 194.453 169.307 194.3 170.42 194.4C172.464 194.874 174.246 196.119 175.392 197.876C174.874 199.332 174.273 200.758 173.592 202.146C172.312 204.828 168.876 205.876 167.222 203.682C166.86 203.194 166.6 202.639 166.455 202.05C166.31 201.46 166.285 200.847 166.38 200.248ZM153.18 185.374C152.022 185.3 150.914 184.872 150.008 184.146C149.102 183.42 148.443 182.432 148.118 181.318C148.1 180.538 148.3 179.769 148.696 179.098C149.092 178.426 149.668 177.879 150.358 177.518C151.48 177.042 152.73 176.959 153.904 177.284C155.371 177.671 156.863 177.949 158.37 178.116C160.564 178.336 162.78 178.196 164.928 177.702C165.152 177.702 163.947 178.188 160.652 180.114C158.005 181.632 155.507 183.396 153.19 185.384L153.18 185.374ZM173.614 159.66C178.618 160.288 183.17 162.869 186.278 166.84C183.147 168.014 180.076 169.346 177.078 170.83C175.89 167.122 174.684 163.408 173.624 159.66H173.614ZM166.432 142.236C166.702 143.322 167.012 144.398 167.298 145.478C165.25 145.025 163.137 144.941 161.058 145.232C154.188 146.278 152.444 152.714 155.796 155.62C158.748 158.18 167.042 158.944 171.046 159.472C172.174 163.558 173.496 167.596 174.788 171.632C169.255 174.192 163.12 176.708 156.944 175.492C155.794 175.266 154.646 174.938 153.479 174.776C154.396 173.394 155.279 171.976 156.062 170.526C156.184 170.302 156.216 170.041 156.151 169.795C156.087 169.549 155.932 169.337 155.716 169.202C152.426 167.096 144.548 161.788 144.548 161.788C143.508 161.098 142.548 162.774 143.572 163.458L153.934 170.338C153.078 171.858 152.146 173.338 151.162 174.778C150.223 174.916 149.327 175.265 148.541 175.799C147.756 176.332 147.101 177.036 146.626 177.859C146.151 178.681 145.868 179.6 145.799 180.547C145.729 181.494 145.875 182.445 146.224 183.328C147.248 185.226 148.956 186.663 151 187.348C148.829 189.628 147.21 192.377 146.268 195.382L99.0545 209.048C98.4905 206.552 88.7045 163.526 87.9305 160.19C107.36 155.88 141.054 147.894 166.442 142.236H166.432ZM299.928 206.424C293.988 244.588 267.144 273.364 243.986 281.492C222.257 289.122 191.986 288.466 171.146 282.178C166.051 280.616 161.109 278.594 156.38 276.136C150.58 273.152 144.842 269.936 139.322 266.468C134.253 263.374 129.69 259.518 125.794 255.036C121.708 250.067 118.645 244.338 116.782 238.18C114.919 232.022 114.293 225.557 114.94 219.156C120.466 221.626 136.285 228.608 138.676 229.606C138.945 229.778 139.251 229.884 139.569 229.916C139.887 229.947 140.207 229.902 140.504 229.786C151.38 226.914 169.934 220.264 180.452 216.41C180.891 228.752 181.728 238.448 187.252 249.67C190.177 255.834 194.23 261.396 199.201 266.07C208.859 274.87 221.574 278.408 234.688 278.008C241.946 278.068 249.1 276.278 255.474 272.808C264.965 266.528 272.805 258.055 278.33 248.106C278.908 247.006 277.238 246.026 276.66 247.13C274.545 251.151 271.953 254.902 268.938 258.302C260.062 240.854 253.15 230.596 238.126 219.624C241.479 216.75 243.943 212.982 245.232 208.76C245.301 208.512 245.268 208.248 245.141 208.025C245.014 207.802 244.804 207.638 244.556 207.57C244.31 207.506 244.048 207.541 243.826 207.666C243.604 207.792 243.44 207.999 243.368 208.244C242.236 211.952 240.125 215.285 237.257 217.894C236.298 218.691 235.175 219.267 233.969 219.58C232.762 219.893 231.501 219.935 230.275 219.703C229.05 219.471 227.892 218.971 226.883 218.239C225.874 217.507 225.039 216.56 224.438 215.468C220.504 209.494 221.19 199.552 218.542 188.102C221.391 184.388 223.992 180.502 226.528 176.572C227.092 178.386 227.58 180.224 228.088 182.056C228.144 182.235 228.25 182.395 228.393 182.516C228.537 182.637 228.712 182.715 228.899 182.739C229.085 182.763 229.274 182.733 229.444 182.653C229.614 182.573 229.757 182.445 229.856 182.286C233.323 176.16 237.505 170.468 242.314 165.33C250.736 156.898 262.062 150.73 273.808 152.688C283.93 154.378 292.032 162.024 296.426 171.06C301.714 181.926 301.762 194.708 299.938 206.424H299.928Z" fill="#000001"/>
<path d="M211.236 36.2097C213.359 39.2891 216.028 41.9527 219.112 44.0677C219.22 44.1443 219.344 44.1962 219.474 44.2199C219.604 44.2435 219.738 44.2383 219.865 44.2045C219.993 44.1707 220.112 44.1093 220.214 44.0244C220.315 43.9396 220.397 43.8335 220.452 43.7137C223.164 37.7297 223.452 30.5137 221.31 22.2797C219.836 16.9465 217.649 11.837 214.806 7.08966C213.576 4.71555 212.15 2.44775 210.544 0.309666C210.433 0.186037 210.29 0.0943505 210.131 0.0439803C209.972 -0.00638984 209.802 -0.0136364 209.639 0.0229766C209.477 0.0595896 209.327 0.138749 209.205 0.25237C209.082 0.36599 208.993 0.509997 208.944 0.669667C206.794 6.4479 205.71 12.5683 205.744 18.7337C205.954 24.9497 207.852 30.9914 211.236 36.2097ZM207.954 11.9637C208.454 8.92562 209.189 5.93119 210.154 3.00766C210.968 4.22366 211.776 5.55166 212.606 7.04366C216.938 14.8177 220.298 21.5497 220.884 31.4437C221.093 34.9808 220.521 38.5205 219.208 41.8117C214.806 38.3217 211.434 33.7017 209.451 28.4449C207.469 23.188 206.952 17.4916 207.954 11.9637Z" fill="#000001"/>
<path d="M84.7345 119C85.8945 123.096 88.7345 132.046 88.8865 132.568C88.9564 132.806 89.1169 133.008 89.3337 133.13C89.5504 133.252 89.8063 133.284 90.0465 133.22C93.4465 132.258 100.318 130.09 103.62 129.066C103.74 129.031 103.852 128.973 103.949 128.895C104.046 128.818 104.127 128.721 104.187 128.612C104.247 128.502 104.284 128.382 104.297 128.258C104.31 128.134 104.298 128.009 104.262 127.89C103.178 124.6 101.098 117.638 100.116 114.336C100.045 114.096 99.8829 113.894 99.6641 113.772C99.4452 113.651 99.1875 113.621 98.9465 113.688C98.9465 113.688 85.9465 117.67 85.3845 117.838C85.1458 117.908 84.9441 118.069 84.8226 118.286C84.7011 118.503 84.6695 118.759 84.7345 119ZM86.8225 119.372L98.5825 115.772L102.182 127.532L90.4225 131.132L86.8225 119.372Z" fill="#000001"/>
<path d="M111.78 126.202C111.98 126.202 110.74 126.434 127.05 123.11C127.291 123.039 127.495 122.877 127.616 122.657C127.738 122.438 127.767 122.179 127.698 121.938C127.538 121.392 120.624 115.148 117.098 111.898C117.009 111.799 116.899 111.72 116.777 111.666C116.654 111.612 116.522 111.584 116.388 111.584C116.255 111.584 116.123 111.612 116 111.666C115.878 111.72 115.768 111.799 115.678 111.898C115.178 112.452 111.57 122.898 110.854 124.996C110.812 125.138 110.803 125.288 110.83 125.434C110.857 125.581 110.918 125.718 111.008 125.836C111.099 125.954 111.216 126.049 111.35 126.112C111.484 126.176 111.632 126.206 111.78 126.202ZM113.18 124.012C114.222 120.994 115.436 117.55 116.742 114.15L124.804 121.644L113.18 124.012Z" fill="#000001"/>
<path d="M135.53 120.328C136.661 120.339 137.775 120.058 138.764 119.511C139.754 118.964 140.585 118.171 141.176 117.208C141.768 116.245 142.101 115.145 142.142 114.016C142.183 112.886 141.931 111.765 141.41 110.762C138.302 105.408 130.064 105.762 128.392 111.562C128.131 112.626 128.12 113.736 128.361 114.805C128.601 115.874 129.087 116.873 129.779 117.722C130.47 118.572 131.35 119.249 132.348 119.701C133.346 120.154 134.436 120.368 135.53 120.328ZM130.13 112.328C130.958 108.354 136.514 107.712 139.168 110.832C139.833 111.619 140.214 112.607 140.25 113.636C140.286 114.666 139.976 115.678 139.369 116.51C138.63 117.389 137.624 118.003 136.504 118.258C135.383 118.512 134.211 118.394 133.164 117.92C132.118 117.446 131.255 116.644 130.707 115.634C130.16 114.624 129.957 113.463 130.13 112.328Z" fill="#000001"/>
<path d="M68.7025 105.66C67.8485 105.893 67.0541 106.305 66.3722 106.87C65.6904 107.435 65.1368 108.138 64.7485 108.934C64.5309 109.438 64.4316 109.986 64.4583 110.535C64.485 111.083 64.6369 111.619 64.9025 112.1C65.5847 113.13 66.4795 114.002 67.5269 114.657C68.5742 115.313 69.7498 115.736 70.9745 115.9C73.7465 116.428 76.8205 116.372 78.5285 114.11C81.6485 109.984 74.8145 104.212 68.7025 105.66ZM75.1025 108.728C76.6785 109.698 78.1685 111.402 77.0505 112.95C76.1385 114.214 74.2725 114.596 71.4725 114.082C70.4868 113.976 69.5355 113.659 68.6834 113.152C67.8313 112.645 67.0983 111.961 66.5345 111.146C65.7345 109.616 67.4725 108.068 68.9785 107.546C70.0236 107.287 71.1125 107.259 72.1696 107.463C73.2268 107.667 74.2269 108.098 75.1005 108.728H75.1025Z" fill="#000001"/>
<path d="M45.1805 107.074C45.2695 107.173 45.3784 107.252 45.5 107.306C45.6217 107.36 45.7534 107.388 45.8865 107.388C46.1925 107.388 45.7165 107.588 52.7725 104.02C52.9217 103.978 53.0583 103.901 53.1701 103.794C53.282 103.687 53.3655 103.554 53.4133 103.406C53.461 103.259 53.4715 103.102 53.4438 102.95C53.4161 102.798 53.351 102.655 53.2545 102.534C53.1085 102.236 52.4665 102.038 39.6545 97.1917C38.7125 96.8357 38.1185 98.0157 38.6685 98.7217L45.1805 107.074ZM42.1805 100.166L50.2005 103.21L46.1505 105.254L42.1805 100.166Z" fill="#000001"/>
<path d="M52.4465 93.2737C59.7505 99.1577 59.2945 98.8997 59.7685 98.8997C60.0625 98.8997 59.5325 99.0677 66.4805 96.2277C69.3965 95.0277 69.5745 94.9617 69.7145 94.7797C69.8277 94.6779 69.9136 94.5495 69.9644 94.406C70.0153 94.2626 70.0294 94.1087 70.0056 93.9584C69.9817 93.8081 69.9206 93.6662 69.8279 93.5455C69.7351 93.4249 69.6136 93.3293 69.4745 93.2677C62.6165 87.8297 62.8745 87.8457 62.1365 88.0397C61.9365 88.0917 62.1045 88.0517 52.7905 91.6797C52.6337 91.7309 52.493 91.8223 52.3825 91.9448C52.272 92.0673 52.1956 92.2166 52.1608 92.3779C52.126 92.5391 52.1341 92.7067 52.1842 92.8639C52.2343 93.021 52.3248 93.1623 52.4465 93.2737ZM54.9385 92.8737L62.3145 89.9837L67.2205 93.8737L59.9285 96.8737L54.9385 92.8737Z" fill="#000001"/>
<path d="M380.101 217.552C377.319 216.675 374.417 216.237 371.5 216.254C357.24 216.33 346.901 218.626 339.433 229.824C337.535 232.68 335.927 235.718 334.633 238.894C334.587 239.034 334.574 239.183 334.596 239.33C334.618 239.476 334.675 239.615 334.76 239.735C334.846 239.856 334.958 239.955 335.089 240.024C335.22 240.093 335.365 240.131 335.512 240.134C342.954 240.456 352.417 239.956 359.347 237.122C365.004 234.433 370.164 230.804 374.608 226.39C376.969 224.208 379.002 221.696 380.642 218.932C380.713 218.808 380.756 218.67 380.766 218.528C380.776 218.387 380.755 218.244 380.703 218.112C380.651 217.979 380.57 217.86 380.465 217.763C380.361 217.666 380.236 217.594 380.101 217.552ZM378.381 218.984C373.439 225.734 366.973 231.221 359.508 234.998C356.272 236.412 352.838 237.325 349.327 237.704C345.215 238.225 341.069 238.419 336.926 238.284C338.865 233.491 341.777 229.153 345.478 225.544C352.358 218.908 363.006 218.104 371.478 218.144C373.806 218.124 376.126 218.407 378.381 218.984Z" fill="#000001"/>
<path d="M244.067 133.482L254.331 131.612C255.552 131.39 255.036 129.524 253.816 129.748L243.553 131.618C242.331 131.84 242.849 133.704 244.067 133.482Z" fill="#000001"/>
<path d="M358.381 203.198C359.337 202.398 357.956 201.03 357.012 201.83C350.452 207.717 344.828 214.571 340.333 222.154C344.009 214.976 342.259 204.884 338.209 198.848C337.567 197.894 336.372 198.678 336.486 199.136C334.27 204.87 333.79 211.13 335.107 217.136C335.675 219.371 336.669 221.477 338.035 223.336C338.107 223.453 338.205 223.554 338.321 223.63C338.436 223.706 338.567 223.756 338.704 223.776C338.841 223.796 338.981 223.786 339.114 223.747C339.246 223.707 339.369 223.639 339.473 223.548C331.45 236.901 325.549 251.419 321.981 266.584C321.905 229.76 321.879 199.696 318.363 168.606C333.163 169.062 346.982 163.206 354.796 150.504C354.869 150.396 354.917 150.274 354.938 150.145C354.959 150.017 354.951 149.886 354.916 149.761C354.881 149.636 354.819 149.52 354.735 149.421C354.651 149.322 354.546 149.242 354.429 149.188C351.116 147.626 347.524 146.745 343.865 146.599C340.205 146.452 336.554 147.043 333.128 148.335C329.701 149.628 326.569 151.596 323.919 154.123C321.268 156.649 319.152 159.683 317.697 163.044C316.15 150 313.795 137.065 310.645 124.314C306.251 109.234 298.178 95.4821 287.153 84.2956C271.451 68.1596 258.182 62.0356 239.418 53.2716C253.954 43.9396 256.418 22.2957 248.896 9.05565C248.824 8.93112 248.724 8.82477 248.604 8.74472C248.485 8.66466 248.348 8.61302 248.205 8.59373C248.063 8.57443 247.917 8.588 247.781 8.6334C247.644 8.67879 247.519 8.7548 247.417 8.85565C234.917 20.9776 230.27 31.8317 232.354 44.0557C232.882 47.1796 234.026 50.1675 235.718 52.8456C229.056 51.9807 222.3 52.1426 215.686 53.3256C210.016 54.3039 204.652 56.5897 200.019 60.0019C195.385 63.4142 191.611 67.8589 188.994 72.9836C188.929 73.1054 188.89 73.2401 188.881 73.3783C188.873 73.5165 188.894 73.6549 188.944 73.7839C188.995 73.9129 189.072 74.0295 189.172 74.1255C189.272 74.2214 189.392 74.2945 189.522 74.3396C198.03 77.8706 207.483 78.4169 216.34 75.8896C221.365 74.2206 225.989 71.5301 229.923 67.9874C233.858 64.4446 237.016 60.1262 239.201 55.3036C255.903 63.1036 266.282 67.7876 280.488 80.5636C292.98 91.5857 302.371 105.685 307.727 121.46C309.429 126.818 310.77 132.284 311.74 137.822C315.816 159.762 318.498 179.782 319.49 214.95C320.09 236.372 320.09 282.708 320.09 282.924C320.102 283.173 320.209 283.407 320.389 283.58C320.569 283.752 320.808 283.848 321.058 283.848C321.307 283.848 321.546 283.752 321.726 283.58C321.906 283.407 322.013 283.173 322.025 282.924C321.667 259.052 339.669 218.784 358.381 203.198ZM338.781 221.034C335.312 215.18 335.843 207.364 337.623 201.578C339.28 204.52 340.245 207.802 340.443 211.174C340.641 214.545 340.067 217.917 338.765 221.034H338.781ZM237.542 52.1576C230.166 40.3577 234.578 27.0977 241.22 18.5577C243.246 15.9289 245.447 13.4399 247.809 11.1076C255.625 27.4956 248.78 45.6956 237.542 52.1576ZM237.25 55.0356C233.804 62.1571 228.185 68.0004 221.204 71.7237C219.482 72.6736 217.674 73.4604 215.804 74.0736C207.693 76.4268 199.03 76.0252 191.17 72.9316C194.254 67.2775 198.844 62.5891 204.432 59.3876C216.008 52.7636 227.98 54.3476 237.25 55.0356ZM318.481 166.328C319.537 162.949 321.286 159.828 323.618 157.165C325.949 154.502 328.811 152.354 332.02 150.861C335.229 149.367 338.715 148.559 342.254 148.49C345.793 148.421 349.307 149.091 352.572 150.458C340.454 168.946 318.343 166.682 318.141 166.716L318.127 166.606C318.207 166.6 318.283 166.571 318.346 166.521C318.409 166.472 318.456 166.404 318.481 166.328Z" fill="#000001"/>
<path d="M108.309 182.488C112.962 184.258 117.708 185.774 122.36 187.542C122.483 187.575 122.611 187.585 122.737 187.569C122.863 187.553 122.984 187.513 123.095 187.45C123.205 187.387 123.302 187.303 123.38 187.203C123.458 187.103 123.515 186.988 123.548 186.866C123.612 186.619 123.578 186.357 123.452 186.135C123.326 185.914 123.119 185.749 122.874 185.678C118.648 184.078 114.35 182.666 110.113 181.098L119.675 168.374C119.804 168.152 119.84 167.888 119.776 167.64C119.711 167.392 119.55 167.179 119.328 167.05C119.106 166.924 118.843 166.891 118.596 166.956C118.349 167.021 118.137 167.179 118.004 167.398C114.58 171.954 111.156 176.51 107.73 181.068C107.32 181.614 107.791 182.292 108.309 182.488Z" fill="#000001"/>
<path d="M128.38 190.116C128.619 190.173 128.87 190.138 129.084 190.017C129.297 189.896 129.456 189.698 129.528 189.464C132.168 180.636 134.778 171.794 137.112 162.88C137.166 162.637 137.125 162.383 136.997 162.171C136.869 161.958 136.664 161.802 136.425 161.736C136.186 161.67 135.93 161.699 135.711 161.816C135.492 161.933 135.326 162.13 135.248 162.366C132.604 171.194 130 180.036 127.664 188.95C127.634 189.073 127.628 189.202 127.648 189.328C127.667 189.453 127.712 189.574 127.778 189.683C127.845 189.791 127.933 189.885 128.036 189.96C128.139 190.034 128.256 190.087 128.38 190.116Z" fill="#000001"/>
<path d="M203.697 257.184C206.22 258.313 208.835 259.224 211.513 259.91C211.758 259.971 212.017 259.934 212.236 259.807C212.454 259.68 212.614 259.472 212.682 259.228C212.749 258.984 212.718 258.724 212.595 258.502C212.473 258.281 212.269 258.116 212.027 258.044C209.512 257.397 207.053 256.551 204.673 255.514C204.449 255.392 204.188 255.36 203.942 255.425C203.696 255.489 203.484 255.644 203.349 255.86C203.22 256.081 203.184 256.345 203.249 256.594C203.314 256.842 203.475 257.054 203.697 257.184Z" fill="#000001"/>
<path d="M183.024 114.566C183.269 114.558 183.502 114.458 183.676 114.284C183.849 114.111 183.95 113.879 183.958 113.634V95.8557C183.947 95.6068 183.84 95.3719 183.66 95.1998C183.48 95.0277 183.241 94.9316 182.991 94.9316C182.742 94.9316 182.503 95.0277 182.323 95.1998C182.143 95.3719 182.036 95.6068 182.024 95.8557V113.634C182.029 113.761 182.058 113.885 182.111 114.001C182.164 114.116 182.238 114.22 182.331 114.307C182.424 114.393 182.533 114.461 182.652 114.505C182.771 114.55 182.898 114.57 183.024 114.566Z" fill="#000001"/>
<path d="M203.515 97.2557C203.292 97.131 203.029 97.0975 202.782 97.1624C202.535 97.2274 202.323 97.3855 202.19 97.6037C200.7 99.5577 189.47 114.272 188.918 114.992C188.79 115.213 188.754 115.477 188.819 115.726C188.884 115.974 189.045 116.186 189.267 116.316C189.489 116.44 189.751 116.473 189.998 116.408C190.244 116.343 190.456 116.185 190.588 115.968C192.082 114.014 203.31 99.3017 203.86 98.5797C203.99 98.3581 204.026 98.0944 203.961 97.8463C203.896 97.5981 203.735 97.3858 203.515 97.2557Z" fill="#000001"/>
<path d="M195.554 122.516C195.688 122.733 195.9 122.891 196.147 122.955C196.394 123.019 196.656 122.986 196.879 122.862L212.257 116.316C212.478 116.186 212.639 115.974 212.704 115.726C212.769 115.477 212.733 115.213 212.605 114.992C212.472 114.774 212.26 114.616 212.013 114.552C211.767 114.487 211.505 114.521 211.283 114.646L195.903 121.192C195.681 121.321 195.52 121.534 195.455 121.782C195.39 122.03 195.426 122.294 195.554 122.516Z" fill="#000001"/>
<path d="M135.224 235.372L125.054 245.678C124.18 246.564 125.547 247.932 126.423 247.046L136.592 236.74C137.466 235.854 136.1 234.484 135.224 235.372Z" fill="#000001"/>
<path d="M143.042 236.928C142.795 236.86 142.531 236.893 142.309 237.02C142.086 237.147 141.923 237.357 141.854 237.604L139.282 253.914C139.223 254.161 139.259 254.421 139.385 254.642C139.511 254.863 139.716 255.028 139.958 255.104C140.206 255.171 140.47 255.138 140.693 255.011C140.916 254.885 141.08 254.675 141.148 254.428C141.148 254.428 143.614 238.788 143.718 238.118C143.778 237.871 143.742 237.61 143.616 237.389C143.49 237.168 143.285 237.003 143.042 236.928Z" fill="#000001"/>
<path d="M152 237.604C151.925 237.361 151.76 237.156 151.539 237.03C151.318 236.905 151.058 236.868 150.81 236.928C150.564 236.997 150.354 237.161 150.228 237.384C150.102 237.607 150.069 237.871 150.136 238.118C151.774 242.318 155.506 251.884 155.736 252.47C155.809 252.714 155.973 252.92 156.195 253.046C156.416 253.172 156.678 253.208 156.925 253.146C157.172 253.077 157.382 252.914 157.509 252.691C157.636 252.467 157.669 252.203 157.6 251.956C157.508 251.724 152.092 237.836 152 237.604Z" fill="#000001"/>
<path d="M152.106 237.876L152.12 237.912L152.106 237.876Z" fill="#000001"/>
<path d="M21.6265 194.102C21.8649 194.16 22.1168 194.126 22.3304 194.004C22.5439 193.883 22.7028 193.685 22.7745 193.45C24.5819 187.015 28.0475 181.168 32.8245 176.494C33.7245 175.63 32.3545 174.264 31.4585 175.126C26.3516 179.959 22.6981 186.125 20.9105 192.926C20.879 193.05 20.8725 193.179 20.8916 193.306C20.9107 193.433 20.9548 193.555 21.0215 193.664C21.0882 193.774 21.176 193.869 21.2799 193.944C21.3838 194.019 21.5016 194.073 21.6265 194.102Z" fill="#000001"/>
<path d="M27.6625 170.116C21.5494 175.577 16.737 182.337 13.5785 189.902C13.5445 190.024 13.5349 190.152 13.5504 190.278C13.5659 190.404 13.606 190.526 13.6687 190.636C13.7313 190.747 13.8151 190.844 13.9152 190.922C14.0154 191 14.13 191.058 14.2525 191.092C14.5009 191.158 14.7654 191.125 14.9895 190.999C15.2137 190.873 15.3798 190.664 15.4525 190.418C18.5201 183.175 23.1617 176.707 29.0405 171.482C29.9625 170.654 28.5805 169.288 27.6625 170.116Z" fill="#000001"/>
<path d="M84.7205 108.226C84.8506 108.447 85.063 108.607 85.3111 108.672C85.5592 108.737 85.8229 108.701 86.0445 108.572C86.2626 108.439 86.4206 108.227 86.4852 107.981C86.5497 107.734 86.5158 107.472 86.3905 107.25L81.6805 97.1197C81.5487 96.9004 81.3356 96.742 81.0877 96.6791C80.8397 96.6162 80.5769 96.6538 80.3565 96.7837C80.1384 96.916 79.9804 97.1279 79.9158 97.3746C79.8513 97.6213 79.8852 97.8835 80.0105 98.1057L84.7205 108.226Z" fill="#000001"/>
<path d="M88.8645 106.46C88.9376 106.706 89.1038 106.914 89.3278 107.04C89.5519 107.166 89.8161 107.199 90.0645 107.134C90.187 107.1 90.3016 107.042 90.4018 106.964C90.5019 106.886 90.5857 106.789 90.6483 106.678C90.7109 106.568 90.7511 106.446 90.7666 106.32C90.7821 106.194 90.7725 106.066 90.7385 105.944L86.5745 95.3637C86.4988 95.1212 86.3337 94.9166 86.1127 94.7914C85.8917 94.6663 85.6313 94.6299 85.3845 94.6897C85.1371 94.7579 84.9269 94.9216 84.8001 95.1447C84.6734 95.3679 84.6404 95.6322 84.7085 95.8797L88.8645 106.46Z" fill="#000001"/>
<path d="M71.9025 93.0197C71.9778 93.2625 72.1427 93.4676 72.3637 93.5931C72.5848 93.7187 72.8454 93.7554 73.0925 93.6957C73.3395 93.627 73.5492 93.4632 73.6756 93.2401C73.802 93.017 73.8347 92.7528 73.7665 92.5057C72.4238 89.1497 71.0812 85.7923 69.7385 82.4337C69.6632 82.1908 69.4983 81.9858 69.2773 81.8602C69.0562 81.7346 68.7956 81.698 68.5485 81.7577C68.3015 81.8263 68.0917 81.9902 67.9654 82.2133C67.839 82.4364 67.8063 82.7005 67.8745 82.9477C69.2172 86.305 70.5598 89.6623 71.9025 93.0197Z" fill="#000001"/>
<path d="M146.018 118.342C146.263 118.333 146.495 118.232 146.668 118.059C146.841 117.886 146.942 117.654 146.951 117.41C147.066 113.511 146.911 109.609 146.486 105.732C146.478 105.478 146.373 105.237 146.193 105.057C146.014 104.878 145.772 104.774 145.518 104.766C145.262 104.766 145.017 104.867 144.835 105.049C144.654 105.23 144.552 105.475 144.552 105.732C144.969 109.61 145.124 113.511 145.016 117.41C145.026 117.666 145.137 117.908 145.325 118.082C145.513 118.257 145.762 118.35 146.018 118.342Z" fill="#000001"/>
</svg>
