<svg width="24" height="24" viewBox="0 0 24 24" fill="none" xmlns="http://www.w3.org/2000/svg">
<path d="M14.6212 20.565C14.6296 20.6187 14.6263 20.6735 14.6116 20.7258C14.5968 20.7781 14.5709 20.8266 14.5356 20.8679C14.5003 20.9092 14.4565 20.9424 14.4072 20.9652C14.3579 20.988 14.3042 20.9999 14.2499 21H10.9311C10.5674 20.7675 10.2186 20.5162 9.88114 20.25C9.74614 20.145 9.61489 20.0362 9.48364 19.9275L9.75364 18.315C9.76787 18.2269 9.81308 18.1467 9.88114 18.089C9.9492 18.0313 10.0356 17.9997 10.1249 18H13.8749C13.9642 17.9997 14.0506 18.0313 14.1187 18.089C14.1867 18.1467 14.2319 18.2269 14.2462 18.315L14.5687 20.25L14.6212 20.565Z" fill="#B5BED2"/>
<path d="M6.75 11.25H4.5C4.29289 11.25 4.125 11.4179 4.125 11.625V18.375C4.125 18.5821 4.29289 18.75 4.5 18.75H6.75C6.95711 18.75 7.125 18.5821 7.125 18.375V11.625C7.125 11.4179 6.95711 11.25 6.75 11.25Z" fill="#B5BED2"/>
<path d="M13.125 11.25H10.875C10.6679 11.25 10.5 11.4179 10.5 11.625V18.375C10.5 18.5821 10.6679 18.75 10.875 18.75H13.125C13.3321 18.75 13.5 18.5821 13.5 18.375V11.625C13.5 11.4179 13.3321 11.25 13.125 11.25Z" fill="#B5BED2"/>
<path d="M19.5 11.25H17.25C17.0429 11.25 16.875 11.4179 16.875 11.625V18.375C16.875 18.5821 17.0429 18.75 17.25 18.75H19.5C19.7071 18.75 19.875 18.5821 19.875 18.375V11.625C19.875 11.4179 19.7071 11.25 19.5 11.25Z" fill="#B5BED2"/>
<path d="M14.25 9H9.74998C9.69551 9 9.6417 9.01187 9.59228 9.03478C9.54287 9.05769 9.49904 9.09108 9.46384 9.13265C9.42864 9.17421 9.40291 9.22294 9.38845 9.27546C9.374 9.32797 9.37115 9.383 9.38011 9.43673L9.75512 11.6867C9.76972 11.7743 9.81491 11.8538 9.88263 11.9112C9.95035 11.9685 10.0362 12 10.125 12H13.875C13.9638 12 14.0497 11.9686 14.1174 11.9112C14.1851 11.8538 14.2303 11.7743 14.2449 11.6867L14.6199 9.43673C14.6288 9.383 14.626 9.32797 14.6115 9.27546C14.5971 9.22294 14.5713 9.17421 14.5361 9.13265C14.5009 9.09108 14.4571 9.05769 14.4077 9.03478C14.3583 9.01187 14.3045 9 14.25 9Z" fill="#B5BED2"/>
<path d="M7.87498 9H3.37498C3.32051 9 3.2667 9.01187 3.21728 9.03478C3.16787 9.05769 3.12404 9.09108 3.08884 9.13265C3.05364 9.17421 3.02791 9.22294 3.01345 9.27546C2.999 9.32797 2.99615 9.383 3.00511 9.43673L3.38011 11.6867C3.39472 11.7743 3.43991 11.8538 3.50763 11.9112C3.57535 11.9685 3.66123 12 3.74998 12H7.49998C7.58873 12 7.6746 11.9685 7.74232 11.9112C7.81005 11.8538 7.85523 11.7743 7.86984 11.6867L8.24484 9.43673C8.25381 9.383 8.25096 9.32797 8.2365 9.27546C8.22204 9.22294 8.19632 9.17421 8.16112 9.13265C8.12592 9.09108 8.08209 9.05769 8.03267 9.03478C7.98326 9.01187 7.92944 9 7.87498 9Z" fill="#B5BED2"/>
<path d="M16.5 12H20.25C20.3387 12 20.4246 11.9686 20.4924 11.9112C20.5601 11.8538 20.6053 11.7743 20.6198 11.6867L20.9948 9.43673C21.0038 9.383 21.001 9.32797 20.9865 9.27546C20.972 9.22294 20.9463 9.17421 20.9111 9.13265C20.8759 9.09108 20.8321 9.05769 20.7827 9.03478C20.7333 9.01187 20.6794 9 20.625 9H16.125C16.0705 9 16.0167 9.01187 15.9673 9.03478C15.9179 9.05769 15.874 9.09108 15.8388 9.13265C15.8036 9.17421 15.7779 9.22294 15.7635 9.27546C15.749 9.32797 15.7461 9.383 15.7551 9.43673L16.1301 11.6867C16.1447 11.7743 16.1899 11.8538 16.2576 11.9112C16.3253 11.9686 16.4112 12 16.5 12Z" fill="#B5BED2"/>
<path d="M13.875 18H10.125C10.0362 18 9.95035 18.0315 9.88263 18.0889C9.81491 18.1462 9.76972 18.2257 9.75512 18.3133L9.38011 20.5633C9.37115 20.617 9.374 20.672 9.38845 20.7245C9.40291 20.7771 9.42864 20.8258 9.46384 20.8674C9.49904 20.9089 9.54287 20.9423 9.59228 20.9652C9.6417 20.9881 9.69551 21 9.74998 21H14.25C14.3045 21 14.3583 20.9881 14.4077 20.9652C14.4571 20.9423 14.5009 20.9089 14.5361 20.8674C14.5713 20.8258 14.5971 20.7771 14.6115 20.7245C14.626 20.672 14.6288 20.617 14.6199 20.5633L14.2449 18.3133C14.2303 18.2257 14.1851 18.1462 14.1174 18.0888C14.0497 18.0314 13.9638 18 13.875 18Z" fill="#B5BED2"/>
<path d="M20.25 18H16.5C16.4112 18 16.3253 18.0314 16.2576 18.0888C16.1899 18.1462 16.1447 18.2257 16.1301 18.3133L15.7551 20.5633C15.7461 20.617 15.749 20.672 15.7635 20.7245C15.7779 20.7771 15.8036 20.8258 15.8388 20.8674C15.874 20.9089 15.9179 20.9423 15.9673 20.9652C16.0167 20.9881 16.0705 21 16.125 21H20.625C20.6794 21 20.7333 20.9881 20.7827 20.9652C20.8321 20.9423 20.8759 20.9089 20.9111 20.8674C20.9463 20.8258 20.972 20.7771 20.9865 20.7245C21.001 20.672 21.0038 20.617 20.9948 20.5633L20.6198 18.3133C20.6053 18.2257 20.5601 18.1462 20.4924 18.0888C20.4246 18.0314 20.3387 18 20.25 18Z" fill="#B5BED2"/>
<path d="M7.49998 18H3.74998C3.66123 18 3.57535 18.0315 3.50763 18.0889C3.43991 18.1462 3.39472 18.2257 3.38011 18.3133L3.00511 20.5633C2.99615 20.617 2.999 20.672 3.01345 20.7245C3.02791 20.7771 3.05364 20.8258 3.08884 20.8674C3.12404 20.9089 3.16787 20.9423 3.21728 20.9652C3.2667 20.9881 3.32051 21 3.37498 21H7.87498C7.92944 21 7.98326 20.9881 8.03267 20.9652C8.08209 20.9423 8.12592 20.9089 8.16112 20.8674C8.19632 20.8258 8.22204 20.7771 8.2365 20.7245C8.25096 20.672 8.25381 20.617 8.24484 20.5633L7.86984 18.3133C7.85523 18.2257 7.81005 18.1462 7.74232 18.0889C7.6746 18.0315 7.58873 18 7.49998 18Z" fill="#B5BED2"/>
<path d="M4.65 11.25C4.57707 10.7528 4.53075 10.2521 4.51125 9.75C4.50375 9.5625 4.5 9.375 4.5 9.1875C4.5 9.12375 4.5 9.06375 4.50375 9H3V9.75H3.05625L3.37875 11.685C3.39298 11.7731 3.43819 11.8532 3.50625 11.911C3.57431 11.9687 3.66074 12.0003 3.75 12H4.78125C4.7325 11.7525 4.6875 11.5012 4.65 11.25Z" fill="#B5BED2"/>
<path d="M21.75 20.25H2.25C2.04289 20.25 1.875 20.4179 1.875 20.625V22.875C1.875 23.0821 2.04289 23.25 2.25 23.25H21.75C21.9571 23.25 22.125 23.0821 22.125 22.875V20.625C22.125 20.4179 21.9571 20.25 21.75 20.25Z" fill="#B5BED2"/>
<path d="M7.125 17.37V18H4.125V12H4.78125C5.1744 13.9355 5.97319 15.7657 7.125 17.37Z" fill="#B5BED2"/>
<path d="M9.88115 20.2497H9.43115L9.48365 19.9272C9.6149 20.036 9.74615 20.1447 9.88115 20.2497Z" fill="#B5BED2"/>
<path d="M18.5625 23.25H2.25C2.15063 23.2497 2.05542 23.2101 1.98515 23.1399C1.91489 23.0696 1.87529 22.9744 1.875 22.875V20.625C1.87529 20.5256 1.91489 20.4304 1.98515 20.3602C2.05542 20.2899 2.15063 20.2503 2.25 20.25H9.88125C10.2188 20.5163 10.5675 20.7675 10.9312 21C13.2031 22.4738 15.8544 23.2555 18.5625 23.25Z" fill="#B5BED2"/>
<path d="M21.75 7.125H2.25C2.04289 7.125 1.875 7.29289 1.875 7.5V9.375C1.875 9.58211 2.04289 9.75 2.25 9.75H21.75C21.9571 9.75 22.125 9.58211 22.125 9.375V7.5C22.125 7.29289 21.9571 7.125 21.75 7.125Z" fill="#B5BED2"/>
<path d="M4.50375 9C4.5 9.06375 4.5 9.12375 4.5 9.1875C4.5 9.375 4.50375 9.5625 4.51125 9.75H2.25C2.15063 9.74971 2.05542 9.71011 1.98515 9.63985C1.91489 9.56958 1.87529 9.47437 1.875 9.375V7.125H4.65C4.6125 7.3725 4.5825 7.62375 4.56 7.875C4.52625 8.24625 4.5075 8.62125 4.50375 9Z" fill="#B5BED2"/>
<path d="M23.0646 7.17636L12.1896 0.801355C12.132 0.767724 12.0666 0.75 11.9999 0.75C11.9332 0.75 11.8677 0.767724 11.8102 0.801355L0.935177 7.17636C0.86412 7.218 0.808745 7.28186 0.777602 7.3581C0.746459 7.43434 0.74128 7.51872 0.762864 7.59819C0.784449 7.67767 0.831596 7.74783 0.897027 7.79785C0.962458 7.84786 1.04253 7.87494 1.12489 7.87491H22.8749C22.9572 7.87494 23.0373 7.84786 23.1027 7.79785C23.1682 7.74783 23.2153 7.67767 23.2369 7.59819C23.2585 7.51872 23.2533 7.43434 23.2222 7.3581C23.191 7.28186 23.1357 7.218 23.0646 7.17636Z" fill="#B5BED2"/>
<path d="M12.75 4.125C12.8495 4.125 12.9448 4.08549 13.0152 4.01516C13.0855 3.94484 13.125 3.84946 13.125 3.75V3.69525C13.1242 3.46819 13.0511 3.24728 12.9162 3.06461C12.7813 2.88193 12.5918 2.74699 12.375 2.67937V2.625C12.375 2.52554 12.3355 2.43016 12.2652 2.35984C12.1948 2.28951 12.0995 2.25 12 2.25C11.9005 2.25 11.8052 2.28951 11.7348 2.35984C11.6645 2.43016 11.625 2.52554 11.625 2.625V2.67937C11.4216 2.74258 11.2418 2.86523 11.1087 3.03153C10.9757 3.19784 10.8955 3.40017 10.8784 3.61247C10.8614 3.82477 10.9083 4.0373 11.0131 4.2227C11.118 4.4081 11.2759 4.55786 11.4666 4.6527L12.1978 5.01799C12.2624 5.05027 12.3141 5.10339 12.3447 5.16874C12.3753 5.2341 12.3829 5.30786 12.3664 5.37809C12.3498 5.44832 12.31 5.51091 12.2535 5.55572C12.1969 5.60053 12.1269 5.62494 12.0547 5.625H11.9453C11.8604 5.62488 11.779 5.5911 11.7189 5.53107C11.6589 5.47104 11.6251 5.38965 11.625 5.30475V5.25C11.625 5.15054 11.5855 5.05516 11.5152 4.98484C11.4448 4.91451 11.3495 4.875 11.25 4.875C11.1505 4.875 11.0552 4.91451 10.9848 4.98484C10.9145 5.05516 10.875 5.15054 10.875 5.25V5.30475C10.8758 5.53181 10.9489 5.75272 11.0838 5.93539C11.2187 6.11807 11.4082 6.25301 11.625 6.32062V6.375C11.625 6.47446 11.6645 6.56984 11.7348 6.64017C11.8052 6.71049 11.9005 6.75 12 6.75C12.0995 6.75 12.1948 6.71049 12.2652 6.64017C12.3355 6.56984 12.375 6.47446 12.375 6.375V6.32062C12.5784 6.25743 12.7582 6.13477 12.8913 5.96846C13.0244 5.80214 13.1046 5.59979 13.1216 5.38748C13.1386 5.17516 13.0917 4.96262 12.9868 4.77723C12.8819 4.59184 12.724 4.44209 12.5332 4.3473L11.8023 3.98201C11.7377 3.94978 11.6859 3.89668 11.6552 3.83132C11.6246 3.76596 11.6169 3.69217 11.6335 3.62191C11.65 3.55165 11.6898 3.48904 11.7464 3.44422C11.803 3.39941 11.8731 3.37501 11.9453 3.375H12.0547C12.1396 3.37512 12.221 3.4089 12.2811 3.46893C12.3411 3.52896 12.3749 3.61035 12.375 3.69525V3.75C12.375 3.84946 12.4145 3.94484 12.4848 4.01516C12.5552 4.08549 12.6505 4.125 12.75 4.125Z" fill="#B5BED2"/>
<path d="M5.24999 4.646C4.97447 5.45212 4.77363 6.28186 4.64999 7.12475C4.61249 7.37225 4.58249 7.6235 4.55999 7.87475H1.12499C1.04312 7.87416 0.963676 7.84685 0.898753 7.79697C0.833829 7.74708 0.786978 7.67736 0.765327 7.59839C0.743677 7.51943 0.748412 7.43556 0.778813 7.35954C0.809213 7.28352 0.863615 7.21951 0.933741 7.17725L5.24999 4.646Z" fill="#B5BED2"/>
</svg>
