<svg width="24" height="24" viewBox="0 0 24 24" fill="none" xmlns="http://www.w3.org/2000/svg">
<path d="M24.0001 9.85051C24.0001 5.25137 19.5383 1.50977 14.0543 1.50977C8.57013 1.50977 4.1084 5.25141 4.1084 9.85051C4.1084 14.4496 8.57013 18.1913 14.0543 18.1913C14.5154 18.1913 14.9781 18.1646 15.433 18.1118C17.5453 19.4537 19.1046 20.1882 20.0711 20.2956C20.1047 20.2992 20.1386 20.3011 20.1717 20.3011C20.4821 20.3011 20.7695 20.1464 20.9406 19.887C21.1318 19.5968 21.1443 19.2286 20.9739 18.928C20.966 18.9137 20.2202 17.5529 20.4353 16.2531C22.7044 14.6652 24.0001 12.3446 24.0001 9.85051ZM11.3532 11.1102C10.5394 11.1102 9.87993 10.4506 9.87993 9.6369C9.87993 8.82322 10.5394 8.16361 11.3532 8.16361C12.1668 8.16361 12.8266 8.82326 12.8266 9.6369C12.8266 10.4506 12.1668 11.1102 11.3532 11.1102ZM16.7556 11.1102C15.9417 11.1102 15.2821 10.4506 15.2821 9.6369C15.2821 8.82322 15.9417 8.16361 16.7556 8.16361C17.5692 8.16361 18.2288 8.82326 18.2288 9.6369C18.2288 10.4506 17.5691 11.1102 16.7556 11.1102Z" fill="#B5BED2"/>
<path d="M6.20953 16.5241C5.22267 15.707 4.44475 14.7504 3.89769 13.6813C3.32086 12.554 3.02843 11.3549 3.02843 10.1172C3.02843 8.87954 3.3209 7.68044 3.89769 6.55319C3.94184 6.46691 3.98808 6.3817 4.03518 6.29688C1.59922 7.69248 0 10.0217 0 12.6548C0 15.0204 1.27431 17.2137 3.50055 18.6891C3.91173 20.3055 2.95757 22.0157 2.94749 22.0332C2.89063 22.1335 2.89482 22.2572 2.95827 22.3535C3.01545 22.4402 3.112 22.4915 3.21447 22.4915C3.2258 22.4915 3.2371 22.4909 3.24855 22.4896C4.36235 22.3659 6.32373 21.2339 7.80961 20.2794C8.31004 20.3473 8.82161 20.3817 9.332 20.3817C11.284 20.3817 13.0976 19.8825 14.5973 19.0307C14.2622 19.0575 13.9247 19.0719 13.5883 19.0719C10.8144 19.0719 8.19388 18.167 6.20953 16.5241Z" fill="#B5BED2"/>
</svg>
