<svg width="24" height="24" viewBox="0 0 24 24" fill="none" xmlns="http://www.w3.org/2000/svg">
<g clip-path="url(#clip0_139_2092)">
<path d="M0.703125 24H13.4531C13.8415 24 14.1562 23.6852 14.1562 23.2969V22.5469C14.1562 21.7701 13.5267 21.1406 12.75 21.1406V20.3C12.75 19.1869 11.8444 18.2812 10.7313 18.2812H3.42499C2.31189 18.2812 1.40625 19.1869 1.40625 20.3V21.1406C0.629517 21.1406 0 21.7701 0 22.5469V23.2969C0 23.6851 0.314941 24 0.703125 24Z" fill="#B5BED2"/>
<path d="M8.8 15.4854C9.26728 16.1055 10.1491 16.2295 10.7693 15.762C11.3897 15.2947 11.5134 14.4129 11.0462 13.7925L6.81459 8.17724C6.34712 7.55688 5.46547 7.4331 4.84529 7.90039C4.22493 8.36786 4.10097 9.24951 4.56844 9.86987L8.8 15.4854Z" fill="#B5BED2"/>
<path d="M18.9077 7.86806C19.3752 8.48824 20.2569 8.6122 20.8772 8.14474C21.4974 7.67745 21.6214 6.7958 21.1539 6.17544L16.9223 0.560136C16.455 -0.0602256 15.5732 -0.184188 14.953 0.283281C14.3329 0.750749 14.2089 1.6324 14.6764 2.25276L18.9077 7.86806Z" fill="#B5BED2"/>
<path d="M15.8232 11.9531C16.8625 11.17 17.6428 10.1975 18.1307 9.17358L13.207 2.63965C12.0883 2.8266 10.9385 3.30835 9.89905 4.09167C8.85974 4.87482 8.07953 5.84729 7.59155 6.87103L12.5153 13.4053C13.634 13.2184 14.7838 12.7365 15.8232 11.9531Z" fill="#B5BED2"/>
<path d="M17.7218 12.1367C17.3944 12.4703 17.0496 12.7902 16.6695 13.0768C16.2892 13.3632 15.8865 13.6065 15.4758 13.8293L16.3926 15.0461L18.6388 13.3536L17.7218 12.1367Z" fill="#B5BED2"/>
<path d="M19.4852 14.4766L17.239 16.169L21.4706 21.7845C21.9381 22.4049 22.8197 22.5286 23.4399 22.0614C24.0603 21.5939 24.184 20.7122 23.7167 20.0919L19.4852 14.4766Z" fill="#B5BED2"/>
</g>
<defs>
<clipPath id="clip0_139_2092">
<rect width="24" height="24" fill="white"/>
</clipPath>
</defs>
</svg>
