<svg width="24" height="24" viewBox="0 0 24 24" fill="none" xmlns="http://www.w3.org/2000/svg">
<path d="M2.20557 14.1562H0.705566C0.316926 14.1562 0.00244141 14.4707 0.00244141 14.8594V23.2969C0.00244141 23.6855 0.316926 24 0.705566 24H2.20557C3.36872 24 4.31494 23.0538 4.31494 21.8906V16.2656C4.31494 15.1025 3.36877 14.1562 2.20557 14.1562Z" fill="#B5BED2"/>
<path d="M23.7917 15.5204C23.7073 15.3799 23.5948 15.2673 23.4683 15.1689C22.9505 14.716 22.0782 14.7588 21.5699 15.3095L18.3776 18.9939L18.2792 19.1064C17.8855 19.5423 17.323 19.7814 16.7324 19.7814H11.2761C10.8823 19.7814 10.573 19.472 10.573 19.0783C10.573 18.6845 10.8823 18.3752 11.2761 18.3752H15.5652C16.3386 18.3752 16.9714 17.7424 16.9714 16.9689V16.9549C16.9574 16.1814 16.3386 15.5627 15.5652 15.5627H13.0199C12.5982 15.5627 12.1463 15.4078 11.7824 15.0986C10.0668 13.5939 7.56362 13.4954 5.72144 14.7752V23.4236C7.11362 23.8033 8.548 24.0002 9.99639 24.0002H16.2683C17.8151 24.0002 19.2777 23.2689 20.2058 22.0314L23.5809 17.5314C24.0732 16.885 24.1103 15.9986 23.7917 15.5204Z" fill="#B5BED2"/>
<path d="M18.856 1.35914C18.0762 0.482672 16.9951 0 15.812 0C14.4914 0 13.3467 0.624422 12.5016 1.80572C12.4382 1.89427 12.3789 1.98286 12.3233 2.07052C12.2678 1.98281 12.2085 1.89427 12.1452 1.80572C11.3001 0.624422 10.1553 0 8.83477 0C7.65164 0 6.57056 0.482672 5.79075 1.35909C5.05069 2.19084 4.64307 3.30277 4.64307 4.49006C4.64307 5.7803 5.14374 6.97087 6.21858 8.23697C7.1565 9.34158 8.50177 10.477 10.0594 11.7918C10.635 12.2776 11.2303 12.78 11.8628 13.3282C11.995 13.4428 12.1591 13.5 12.3233 13.5C12.4875 13.5 12.6517 13.4428 12.7838 13.3282C13.4163 12.7801 14.0114 12.2778 14.5871 11.792C15.5875 10.9476 16.4514 10.2184 17.2011 9.51108C18.6568 8.13773 20.0037 6.57891 20.0037 4.49011C20.0037 3.30281 19.5961 2.19089 18.856 1.35914Z" fill="#B5BED2"/>
</svg>
