<svg width="24" height="24" viewBox="0 0 24 24" fill="none" xmlns="http://www.w3.org/2000/svg">
<path d="M22.7447 7.97758H20.3537V6.48319C20.3537 5.94521 20.533 5.43711 20.8319 5.01868C20.9813 4.80946 20.9813 4.4807 20.7721 4.30137L19.9651 3.40473C19.7559 3.16563 19.3674 3.13574 19.1283 3.34496C19.0984 3.37484 19.0685 3.40473 19.0386 3.43462C18.3512 4.30137 17.9626 5.37734 17.9626 6.48319V7.97758H14.137L12.0448 3.07597C11.7758 2.41843 11.1183 2 10.401 2H5.40971C4.42341 2 3.61644 2.80697 3.61644 3.79328V9.26277C3.28767 8.99377 2.83935 9.02366 2.54047 9.32254L1.37484 10.4882C1.04608 10.8169 1.04608 11.325 1.37484 11.6538L1.55417 11.8331C1.37484 12.1619 1.2254 12.5205 1.10585 12.9091H0.836862C0.388543 12.9091 0 13.2677 0 13.746V15.3898C0 15.8381 0.358655 16.2267 0.836862 16.2267H1.10585C1.2254 16.5853 1.37484 16.944 1.55417 17.3026L1.37484 17.4819C1.04608 17.8107 1.04608 18.3188 1.37484 18.6476L2.54047 19.8132C2.86924 20.142 3.37733 20.142 3.7061 19.8132L3.88543 19.6339C4.2142 19.8132 4.57285 19.9626 4.96139 20.0822V20.3512C4.96139 20.7995 5.32005 21.188 5.79826 21.188H7.44209C7.89041 21.188 8.27895 20.8294 8.27895 20.3512V20.0822C8.63761 19.9626 8.99626 19.8132 9.35492 19.6339L9.53425 19.8132C9.86301 20.142 10.3711 20.142 10.6999 19.8132L11.8655 18.6476C12.1943 18.3188 12.1943 17.8107 11.8655 17.4819L11.6862 17.3026C11.8655 16.9738 12.0149 16.6152 12.1345 16.2267H12.4035C12.8518 16.2267 13.2403 15.868 13.2403 15.3898V15.1507H16.259C17.5143 13.4172 19.8456 12.8792 21.7584 13.8057L23.6413 11.8929C23.8506 11.6837 24 11.3549 24 11.056V9.1731C23.9402 8.51557 23.4022 7.97758 22.7447 7.97758ZM6.60523 17.5417C4.96139 17.5417 3.61644 16.1968 3.61644 14.5529C3.61644 12.9091 4.96139 11.5641 6.60523 11.5641C8.24907 11.5641 9.59402 12.9091 9.59402 14.5529C9.59402 16.1968 8.24907 17.5417 6.60523 17.5417ZM7.44209 7.97758H6.00747V4.39103H10.0125L11.5666 7.97758H7.44209Z" fill="#B5BED2"/>
<path d="M19.7562 14.5527C17.933 14.5527 16.4685 16.0172 16.4685 17.8404C16.4685 19.6636 17.933 21.1281 19.7562 21.1281C21.5793 21.1281 23.0438 19.6636 23.0438 17.8404C23.0438 16.0172 21.5793 14.5527 19.7562 14.5527ZM19.7562 18.737C19.2481 18.737 18.8595 18.3485 18.8595 17.8404C18.8595 17.3323 19.2481 16.9438 19.7562 16.9438C20.2643 16.9438 20.6528 17.3323 20.6528 17.8404C20.6528 18.3485 20.2643 18.737 19.7562 18.737Z" fill="#B5BED2"/>
</svg>
